{"glyphs":{"0":{"ha":1006,"x_min":79,"x_max":926,"o":"m 926 488 q 897 683 926 592 q 811 843 867 775 q 678 950 756 911 q 504 989 600 989 q 330 949 408 989 q 196 842 251 910 q 110 681 140 774 q 79 485 79 589 q 109 289 79 381 q 194 129 139 197 q 328 22 250 61 q 501 -17 406 -17 q 676 23 597 -17 q 810 131 754 63 q 896 291 865 199 q 926 488 926 383 m 750 485 q 733 349 750 413 q 683 239 715 286 q 606 165 651 192 q 504 138 561 138 q 401 165 447 138 q 323 240 356 192 q 273 351 290 288 q 256 488 256 414 q 273 624 256 560 q 322 734 290 688 q 399 808 354 781 q 501 835 444 835 q 604 807 558 835 q 683 732 650 779 q 733 621 715 685 q 750 485 750 557 z "},"1":{"ha":550,"x_min":36,"x_max":417,"o":"m 36 896 l 72 757 l 247 806 l 247 0 l 417 0 l 417 979 l 297 979 l 36 896 z "},"2":{"ha":851,"x_min":68,"x_max":771,"o":"m 428 833 q 540 794 494 833 q 585 682 585 754 q 575 619 585 649 q 544 560 565 590 q 488 495 522 529 q 403 419 453 461 l 68 135 l 68 0 l 771 0 l 771 150 l 308 150 l 508 317 q 620 414 572 369 q 699 501 668 458 q 746 590 731 544 q 761 694 761 636 q 738 813 761 760 q 674 906 715 867 q 572 965 632 944 q 440 986 513 986 q 324 972 375 986 q 231 933 274 958 q 153 869 189 907 q 82 782 117 831 l 203 688 q 310 797 260 761 q 428 833 361 833 z "},"3":{"ha":858,"x_min":60,"x_max":772,"o":"m 535 824 l 272 544 l 300 438 l 379 438 q 543 399 483 438 q 603 286 603 360 q 555 178 603 218 q 435 138 507 138 q 292 170 353 138 q 179 265 232 203 l 60 154 q 213 31 122 79 q 432 -17 304 -17 q 570 6 507 -17 q 678 70 633 29 q 747 167 722 111 q 772 292 772 224 q 749 408 772 360 q 685 490 725 457 q 594 541 646 522 q 486 567 542 560 l 757 844 l 757 972 l 114 972 l 114 824 l 535 824 z "},"4":{"ha":946,"x_min":50,"x_max":875,"o":"m 590 979 l 50 340 l 82 218 l 572 218 l 572 0 l 736 0 l 736 218 l 875 218 l 875 358 l 736 358 l 736 979 l 590 979 m 572 358 l 253 358 l 572 743 l 572 358 z "},"5":{"ha":864,"x_min":65,"x_max":782,"o":"m 131 496 l 233 428 q 315 458 271 446 q 413 471 360 471 q 559 427 504 471 q 614 308 614 383 q 561 185 614 231 q 421 139 508 139 q 291 170 353 139 q 171 256 229 201 l 65 132 q 222 24 135 65 q 422 -17 310 -17 q 569 7 503 -17 q 683 74 636 31 q 756 178 731 117 q 782 314 782 239 q 756 449 782 392 q 685 545 731 507 q 577 602 639 583 q 444 621 515 621 q 360 613 396 621 q 290 593 325 606 l 306 821 l 739 821 l 739 972 l 158 972 l 131 496 z "},"6":{"ha":911,"x_min":79,"x_max":829,"o":"m 793 881 q 660 960 729 932 q 496 989 590 989 q 315 948 393 989 q 184 835 236 907 q 106 667 132 764 q 79 458 79 571 q 87 328 79 385 q 110 226 94 271 q 147 147 125 181 q 197 85 169 113 q 312 10 246 36 q 468 -17 378 -17 q 610 8 544 -17 q 725 76 676 32 q 801 181 774 119 q 829 315 829 242 q 803 446 829 389 q 730 542 776 503 q 622 602 683 582 q 489 622 560 622 q 412 614 446 622 q 349 592 378 606 q 299 561 321 579 q 257 525 276 543 q 276 648 260 592 q 322 746 293 704 q 394 810 351 788 q 490 833 436 833 q 602 811 554 833 q 701 749 650 789 l 793 881 m 658 308 q 607 181 658 232 q 464 131 556 131 q 317 181 372 131 q 263 307 263 231 q 276 374 263 342 q 316 428 290 406 q 378 465 342 451 q 460 479 414 479 q 605 431 551 479 q 658 308 658 383 z "},"7":{"ha":846,"x_min":94,"x_max":778,"o":"m 94 822 l 583 822 l 147 0 l 339 0 l 778 843 l 778 972 l 94 972 l 94 822 z "},"8":{"ha":875,"x_min":67,"x_max":808,"o":"m 808 269 q 760 413 808 357 q 633 504 713 468 q 735 588 694 536 q 775 722 775 640 q 749 826 775 778 q 679 910 724 875 q 572 966 635 946 q 438 986 510 986 q 302 966 364 986 q 196 910 240 946 q 126 826 151 875 q 100 722 100 778 q 140 588 100 640 q 242 504 181 536 q 113 413 158 469 q 67 265 67 356 q 94 151 67 203 q 172 63 122 99 q 290 6 222 26 q 438 -14 358 -14 q 585 6 517 -14 q 703 62 653 25 q 781 151 753 99 q 808 269 808 204 m 611 706 q 562 601 611 642 q 438 561 513 561 q 313 601 363 561 q 264 707 264 642 q 311 803 264 764 q 438 843 358 843 q 564 803 517 843 q 611 706 611 764 m 642 276 q 588 172 642 214 q 438 129 533 129 q 288 172 342 129 q 233 276 233 214 q 249 338 233 310 q 292 385 265 365 q 357 415 319 404 q 438 425 394 425 q 518 415 481 425 q 583 385 556 404 q 626 338 610 365 q 642 276 642 310 z "},"9":{"ha":911,"x_min":82,"x_max":832,"o":"m 832 514 q 800 745 832 658 q 714 886 768 832 q 599 963 663 938 q 444 989 536 989 q 297 963 364 989 q 183 892 231 938 q 108 785 135 847 q 82 651 82 724 q 107 524 82 581 q 177 426 132 467 q 285 363 222 385 q 426 342 349 342 q 562 371 506 342 q 654 444 618 400 q 635 322 651 378 q 588 224 618 265 q 516 161 558 183 q 419 139 474 139 q 305 161 357 139 q 197 231 253 183 l 104 100 q 240 16 167 49 q 415 -17 314 -17 q 590 22 513 -17 q 722 131 668 61 q 803 299 775 201 q 832 514 832 396 m 649 661 q 635 593 649 625 q 597 537 622 561 q 534 499 571 513 q 451 485 497 485 q 306 533 360 485 q 253 660 253 582 q 303 789 253 736 q 446 842 354 842 q 529 828 492 842 q 593 790 567 814 q 634 733 619 765 q 649 661 649 700 z "}," ":{"ha":417,"x_min":0,"x_max":0,"o":""},"!":{"ha":419,"x_min":111,"x_max":308,"o":"m 111 972 l 111 924 l 164 307 l 257 307 l 308 924 l 308 972 l 111 972 m 303 0 l 303 190 l 118 190 l 118 0 l 303 0 z "},"\"":{"ha":676,"x_min":83,"x_max":611,"o":"m 388 557 l 475 557 l 611 965 l 611 972 l 421 972 l 388 557 m 83 557 l 171 557 l 306 965 l 306 972 l 115 972 l 83 557 z "},"#":{"ha":972,"x_min":54,"x_max":917,"o":"m 917 610 l 917 754 l 793 754 l 831 972 l 682 972 l 646 754 l 418 754 l 456 972 l 307 972 l 269 754 l 106 754 l 106 610 l 244 610 l 204 368 l 54 368 l 54 224 l 179 224 l 140 0 l 289 0 l 326 224 l 554 224 l 515 0 l 664 0 l 703 224 l 867 224 l 867 368 l 728 368 l 768 610 l 917 610 m 621 610 l 579 368 l 351 368 l 393 610 l 621 610 z "},"$":{"ha":892,"x_min":68,"x_max":813,"o":"m 813 271 q 741 451 813 383 q 511 558 669 518 l 511 822 q 700 733 610 801 l 778 864 q 656 933 719 907 q 517 969 593 960 l 517 1053 l 396 1053 l 396 972 q 277 946 331 967 q 185 890 224 925 q 125 808 146 856 q 104 706 104 761 q 122 602 104 647 q 177 523 140 557 q 269 464 214 489 q 401 419 325 439 l 401 147 q 275 188 333 158 q 157 267 217 218 l 68 140 q 222 49 139 83 q 396 3 304 14 l 396 -136 l 517 -136 l 517 1 q 638 28 583 7 q 731 85 692 50 q 791 167 769 119 q 813 271 813 214 m 401 588 q 294 641 321 611 q 268 715 268 671 q 301 794 268 761 q 401 832 335 826 l 401 588 m 649 261 q 613 179 649 211 q 511 142 578 147 l 511 393 q 578 367 551 381 q 620 338 604 354 q 642 303 636 322 q 649 261 649 285 z "},"%":{"ha":1179,"x_min":67,"x_max":1113,"o":"m 525 736 q 508 831 525 786 q 462 910 492 876 q 390 964 432 944 q 297 983 349 983 q 203 963 246 983 q 131 909 161 943 q 83 830 100 875 q 67 733 67 785 q 83 638 67 683 q 130 559 100 593 q 201 506 160 525 q 294 486 243 486 q 388 506 346 486 q 461 560 431 526 q 508 640 492 594 q 525 736 525 685 m 1014 972 l 876 972 l 165 0 l 303 0 l 1014 972 m 1113 239 q 1096 334 1113 289 q 1049 413 1079 379 q 978 467 1019 447 q 885 486 936 486 q 791 466 833 486 q 718 412 749 446 q 671 333 688 378 q 654 236 654 288 q 671 141 654 186 q 717 62 688 96 q 789 8 747 28 q 882 -11 831 -11 q 976 9 933 -11 q 1049 63 1018 29 q 1096 142 1079 97 q 1113 239 1113 188 m 401 733 q 374 634 401 675 q 297 593 346 593 q 220 634 250 593 q 190 736 190 675 q 218 835 190 794 q 294 876 246 876 q 372 835 342 876 q 401 733 401 794 m 989 236 q 961 137 989 178 q 885 96 933 96 q 808 137 838 96 q 778 239 778 178 q 806 338 778 297 q 882 379 833 379 q 959 338 929 379 q 989 236 989 297 z "},"&":{"ha":967,"x_min":54,"x_max":925,"o":"m 925 71 l 772 226 q 842 334 810 278 q 904 449 875 390 l 775 517 q 725 418 751 465 q 671 329 699 371 l 504 499 q 660 595 601 535 q 718 753 718 656 q 699 846 718 803 q 647 921 681 889 q 565 971 613 953 q 460 989 518 989 q 343 969 394 989 q 256 915 292 949 q 200 838 219 882 q 181 743 181 793 q 200 641 181 689 q 261 539 219 593 q 108 428 161 496 q 54 265 54 361 q 78 150 54 201 q 145 62 103 99 q 245 6 188 25 q 371 -14 303 -14 q 533 20 460 -14 q 669 113 607 54 l 799 -19 l 925 71 m 567 743 q 528 653 567 689 q 414 590 489 618 q 357 667 374 635 q 340 736 340 699 q 372 822 340 789 q 456 854 403 854 q 535 824 504 854 q 567 743 567 794 m 572 213 q 485 150 531 172 q 389 128 439 128 q 272 168 318 128 q 226 271 226 208 q 257 362 226 319 q 356 433 288 404 l 572 213 z "},"'":{"ha":374,"x_min":83,"x_max":308,"o":"m 83 557 l 172 557 l 308 965 l 308 972 l 115 972 l 83 557 z "},"(":{"ha":611,"x_min":88,"x_max":546,"o":"m 546 881 l 472 993 q 185 743 282 889 q 88 399 88 597 q 185 54 88 200 q 472 -196 282 -92 l 546 -83 q 326 128 397 14 q 256 399 256 243 q 273 543 256 476 q 326 668 290 610 q 417 779 363 726 q 546 881 472 832 z "},")":{"ha":611,"x_min":67,"x_max":525,"o":"m 67 881 q 285 668 214 782 q 357 399 357 554 q 340 254 357 321 q 286 129 322 188 q 195 18 250 71 q 67 -83 140 -35 l 140 -196 q 427 55 329 -92 q 525 399 525 201 q 427 742 525 596 q 140 993 329 889 l 67 881 z "},"*":{"ha":597,"x_min":81,"x_max":517,"o":"m 517 683 l 358 753 l 517 822 l 467 907 l 328 806 l 347 975 l 250 975 l 269 806 l 131 907 l 81 822 l 239 753 l 81 683 l 131 599 l 269 700 l 250 531 l 347 531 l 328 700 l 467 599 l 517 683 z "},"+":{"ha":889,"x_min":99,"x_max":790,"o":"m 365 565 l 99 565 l 99 413 l 365 413 l 365 147 l 524 147 l 524 413 l 790 413 l 790 565 l 524 565 l 524 831 l 365 831 l 365 565 z "},",":{"ha":374,"x_min":47,"x_max":279,"o":"m 47 -131 l 65 -201 q 225 -140 171 -193 q 279 29 279 -87 l 279 190 l 94 190 l 94 0 l 165 0 q 47 -131 175 -106 z "},"-":{"ha":567,"x_min":78,"x_max":489,"o":"m 489 343 l 489 508 l 78 508 l 78 343 l 489 343 z "},".":{"ha":374,"x_min":94,"x_max":279,"o":"m 279 0 l 279 190 l 94 190 l 94 0 l 279 0 z "},"/":{"ha":724,"x_min":-35,"x_max":739,"o":"m 593 1108 l -35 -178 l 111 -178 l 739 1108 l 593 1108 z "},":":{"ha":388,"x_min":101,"x_max":286,"o":"m 286 543 l 286 733 l 101 733 l 101 543 l 286 543 m 286 0 l 286 190 l 101 190 l 101 0 l 286 0 z "},";":{"ha":388,"x_min":54,"x_max":286,"o":"m 286 543 l 286 733 l 101 733 l 101 543 l 286 543 m 54 -131 l 72 -201 q 232 -140 178 -193 q 286 29 286 -87 l 286 190 l 101 190 l 101 0 l 172 0 q 54 -131 182 -106 z "},"<":{"ha":889,"x_min":97,"x_max":760,"o":"m 97 564 l 97 414 l 760 107 l 760 268 l 264 490 l 760 711 l 760 871 l 97 564 z "},"=":{"ha":889,"x_min":119,"x_max":769,"o":"m 119 740 l 119 585 l 769 585 l 769 740 l 119 740 m 119 393 l 119 238 l 769 238 l 769 393 l 119 393 z "},">":{"ha":889,"x_min":129,"x_max":792,"o":"m 792 414 l 792 564 l 129 871 l 129 710 l 625 488 l 129 267 l 129 107 l 792 414 z "},"?":{"ha":751,"x_min":33,"x_max":693,"o":"m 267 539 l 260 532 l 288 307 l 400 307 l 414 419 q 523 450 472 429 q 611 504 574 471 q 671 586 649 538 q 693 701 693 635 q 669 819 693 767 q 603 909 646 872 q 501 965 561 946 q 368 985 440 985 q 175 942 256 985 q 33 831 94 900 l 138 719 q 242 801 188 772 q 364 829 297 829 q 481 792 439 829 q 524 696 524 756 q 462 585 524 625 q 267 539 400 544 m 433 0 l 433 190 l 247 190 l 247 0 l 433 0 z "},"@":{"ha":1361,"x_min":74,"x_max":1288,"o":"m 1288 439 q 1241 647 1288 547 q 1113 822 1194 746 q 920 943 1031 897 q 682 989 810 989 q 443 940 554 989 q 250 809 332 892 q 121 616 168 726 q 74 381 74 506 q 120 146 74 256 q 250 -47 167 36 q 447 -177 333 -129 q 693 -225 560 -225 q 891 -197 801 -225 q 1061 -121 981 -169 l 1036 -79 q 876 -149 957 -125 q 693 -172 796 -172 q 466 -129 569 -172 q 288 -11 363 -86 q 171 165 213 64 q 129 381 129 265 q 171 596 129 494 q 287 773 213 697 q 462 892 361 849 q 682 936 563 936 q 901 894 800 936 q 1075 783 1001 853 q 1190 624 1149 714 q 1232 439 1232 535 q 1217 315 1232 368 q 1178 226 1203 261 q 1119 172 1153 190 q 1049 154 1086 154 q 969 181 997 154 q 940 253 940 208 q 942 278 940 263 q 947 313 944 293 l 1008 663 l 874 683 l 857 600 q 783 672 829 642 q 661 703 736 703 q 544 676 600 703 q 443 603 488 650 q 372 492 399 556 q 346 356 346 429 q 365 247 346 296 q 419 165 385 199 q 499 112 454 131 q 597 93 544 93 q 723 122 671 93 q 813 190 775 151 q 886 122 836 151 q 1018 93 936 93 q 1121 115 1072 93 q 1206 178 1169 136 q 1265 286 1243 221 q 1288 439 1288 351 m 826 433 q 810 348 826 388 q 768 278 794 308 q 707 231 742 249 q 635 214 672 214 q 528 253 569 214 q 488 364 488 292 q 503 451 488 411 q 546 521 519 492 q 608 567 572 550 q 681 583 643 583 q 785 542 743 583 q 826 433 826 500 z "},"A":{"ha":1097,"x_min":42,"x_max":1056,"o":"m 628 979 l 469 979 l 42 0 l 217 0 l 317 235 l 776 235 l 875 0 l 1056 0 l 628 979 m 714 386 l 379 386 l 546 775 l 714 386 z "},"B":{"ha":1003,"x_min":125,"x_max":935,"o":"m 561 972 l 125 972 l 125 0 l 575 0 q 722 17 656 0 q 836 69 789 35 q 909 153 883 103 q 935 268 935 203 q 921 356 935 318 q 881 422 907 394 q 820 470 856 450 q 742 506 785 490 q 794 539 768 519 q 838 584 819 558 q 869 644 857 610 q 881 724 881 679 q 794 906 881 839 q 561 972 708 972 m 526 563 l 293 563 l 293 821 l 539 821 q 666 788 622 821 q 710 696 710 756 q 660 595 710 628 q 526 563 610 563 m 576 151 l 293 151 l 293 418 l 564 418 q 715 383 665 418 q 764 286 764 349 q 714 185 764 219 q 576 151 664 151 z "},"C":{"ha":1025,"x_min":82,"x_max":971,"o":"m 971 156 l 861 267 q 735 174 799 208 q 582 140 671 140 q 453 167 513 140 q 351 242 394 194 q 285 352 308 289 q 261 488 261 415 q 285 622 261 560 q 351 731 308 685 q 453 805 394 778 q 582 832 513 832 q 731 799 665 832 q 854 711 796 765 l 964 838 q 890 899 929 871 q 806 947 851 926 q 705 978 760 967 q 583 989 650 989 q 381 949 472 989 q 222 841 289 910 q 119 681 156 772 q 82 485 82 589 q 119 288 82 379 q 223 128 157 196 q 379 22 289 61 q 576 -17 469 -17 q 701 -5 644 -17 q 804 30 757 7 q 892 84 851 53 q 971 156 933 115 z "},"D":{"ha":1086,"x_min":125,"x_max":1004,"o":"m 1004 488 q 967 679 1004 590 q 860 833 929 768 q 697 935 792 899 q 488 972 601 972 l 125 972 l 125 0 l 488 0 q 697 38 601 0 q 860 140 792 75 q 967 295 929 206 q 1004 488 1004 385 m 825 485 q 801 352 825 413 q 733 248 776 292 q 626 180 689 204 q 488 156 564 156 l 296 156 l 296 817 l 488 817 q 626 792 564 817 q 733 722 689 767 q 801 617 776 678 q 825 485 825 557 z "},"E":{"ha":931,"x_min":125,"x_max":853,"o":"m 846 972 l 125 972 l 125 0 l 853 0 l 853 153 l 296 153 l 296 414 l 783 414 l 783 567 l 296 567 l 296 819 l 846 819 l 846 972 z "},"F":{"ha":911,"x_min":125,"x_max":849,"o":"m 849 972 l 125 972 l 125 0 l 296 0 l 296 396 l 786 396 l 786 551 l 296 551 l 296 817 l 849 817 l 849 972 z "},"G":{"ha":1089,"x_min":82,"x_max":992,"o":"m 992 135 l 992 543 l 578 543 l 578 394 l 826 394 l 826 213 q 722 159 782 179 q 592 139 661 139 q 456 165 517 139 q 352 238 396 192 q 285 349 308 285 q 261 488 261 413 q 285 621 261 558 q 352 731 310 683 q 452 805 394 778 q 576 832 510 832 q 660 824 622 832 q 731 803 699 817 q 792 771 763 790 q 849 728 821 751 l 957 857 q 880 913 919 889 q 796 954 840 938 q 699 980 751 971 q 583 989 647 989 q 381 949 474 989 q 222 840 289 908 q 119 679 156 771 q 82 485 82 588 q 118 286 82 378 q 220 127 154 194 q 379 22 286 60 q 586 -17 472 -17 q 708 -5 650 -17 q 817 28 767 7 q 912 76 868 49 q 992 135 956 104 z "},"H":{"ha":1056,"x_min":125,"x_max":931,"o":"m 760 410 l 760 0 l 931 0 l 931 972 l 760 972 l 760 568 l 296 568 l 296 972 l 125 972 l 125 0 l 296 0 l 296 410 l 760 410 z "},"I":{"ha":440,"x_min":135,"x_max":306,"o":"m 135 972 l 135 0 l 306 0 l 306 972 l 135 972 z "},"J":{"ha":776,"x_min":29,"x_max":667,"o":"m 667 331 l 667 972 l 492 972 l 492 335 q 449 191 492 238 q 338 144 407 144 q 230 174 275 144 q 142 258 185 204 l 29 143 q 153 31 78 76 q 340 -14 228 -14 q 472 8 413 -14 q 575 72 532 29 q 642 180 618 115 q 667 331 667 244 z "},"K":{"ha":1007,"x_min":125,"x_max":986,"o":"m 564 554 l 968 972 l 758 972 l 296 483 l 296 972 l 125 972 l 125 0 l 296 0 l 296 282 l 447 438 l 779 0 l 986 0 l 564 554 z "},"L":{"ha":860,"x_min":125,"x_max":807,"o":"m 125 0 l 807 0 l 807 156 l 296 156 l 296 972 l 125 972 l 125 0 z "},"M":{"ha":1206,"x_min":125,"x_max":1081,"o":"m 910 697 l 910 0 l 1081 0 l 1081 972 l 899 972 l 603 513 l 307 972 l 125 972 l 125 0 l 293 0 l 293 694 l 597 239 l 603 239 l 910 697 z "},"N":{"ha":1097,"x_min":125,"x_max":972,"o":"m 804 300 l 283 972 l 125 972 l 125 0 l 293 0 l 293 692 l 829 0 l 972 0 l 972 972 l 804 972 l 804 300 z "},"O":{"ha":1181,"x_min":82,"x_max":1099,"o":"m 1099 488 q 1061 682 1099 590 q 957 842 1024 774 q 797 949 890 910 q 592 989 704 989 q 386 949 479 989 q 225 840 293 908 q 119 679 157 771 q 82 485 82 588 q 119 290 82 382 q 224 131 157 199 q 383 23 290 63 q 589 -17 476 -17 q 794 24 701 -17 q 956 133 888 64 q 1061 293 1024 201 q 1099 488 1099 385 m 919 485 q 895 351 919 414 q 828 241 871 288 q 724 167 785 194 q 592 140 664 140 q 458 168 519 140 q 353 243 397 196 q 285 353 310 290 q 261 488 261 417 q 285 622 261 558 q 353 731 310 685 q 456 805 396 778 q 589 832 517 832 q 722 804 661 832 q 827 729 783 776 q 895 619 871 682 q 919 485 919 556 z "},"P":{"ha":928,"x_min":125,"x_max":878,"o":"m 878 646 q 852 781 878 721 q 778 883 826 840 q 662 949 731 926 q 508 972 593 972 l 125 972 l 125 0 l 296 0 l 296 313 l 489 313 q 640 334 569 313 q 764 397 711 356 q 847 501 817 439 q 878 646 878 564 m 704 642 q 648 515 704 563 q 494 467 592 467 l 296 467 l 296 817 l 494 817 q 647 773 590 817 q 704 642 704 729 z "},"Q":{"ha":1181,"x_min":82,"x_max":1111,"o":"m 1000 188 q 1073 328 1047 251 q 1099 488 1099 404 q 1061 682 1099 590 q 957 842 1024 774 q 797 949 890 910 q 592 989 704 989 q 386 949 479 989 q 225 840 293 908 q 119 679 157 771 q 82 485 82 588 q 119 290 82 382 q 224 131 157 199 q 383 23 290 63 q 589 -17 476 -17 q 749 8 675 -17 q 885 75 822 32 l 1001 -29 l 1111 93 l 1000 188 m 758 188 q 682 153 724 165 q 592 140 640 140 q 458 168 519 140 q 353 243 397 196 q 285 353 310 290 q 261 488 261 417 q 285 622 261 558 q 353 731 310 685 q 456 805 396 778 q 589 832 517 832 q 722 804 661 832 q 827 729 783 776 q 895 619 871 682 q 919 485 919 556 q 907 387 919 433 q 869 301 894 340 l 701 454 l 592 329 l 758 188 z "},"R":{"ha":1004,"x_min":125,"x_max":950,"o":"m 950 0 l 688 368 q 781 408 739 382 q 854 470 824 433 q 902 555 885 507 q 919 664 919 603 q 894 792 919 735 q 823 890 869 850 q 709 951 776 929 q 558 972 642 972 l 125 972 l 125 0 l 296 0 l 296 339 l 510 339 l 749 0 l 950 0 m 746 654 q 692 535 746 579 q 546 490 638 490 l 296 490 l 296 817 l 544 817 q 693 776 640 817 q 746 654 746 735 z "},"S":{"ha":889,"x_min":60,"x_max":813,"o":"m 269 718 q 311 801 269 767 q 428 835 353 835 q 560 809 494 835 q 692 735 625 783 l 783 864 q 623 955 708 924 q 431 986 538 986 q 297 966 358 986 q 192 908 236 946 q 124 819 149 871 q 99 703 99 767 q 120 588 99 635 q 183 507 142 540 q 284 451 224 474 q 422 411 344 429 q 533 379 490 394 q 599 347 575 364 q 633 308 624 329 q 642 261 642 288 q 595 171 642 204 q 469 138 549 138 q 306 170 378 138 q 163 264 233 203 l 60 142 q 250 24 147 63 q 465 -14 353 -14 q 606 6 542 -14 q 715 63 669 25 q 787 154 761 100 q 813 278 813 208 q 792 384 813 339 q 733 463 772 429 q 635 521 694 497 q 500 564 576 544 q 385 596 431 581 q 315 629 340 611 q 279 668 289 647 q 269 718 269 689 z "},"T":{"ha":900,"x_min":56,"x_max":844,"o":"m 536 814 l 844 814 l 844 972 l 56 972 l 56 814 l 364 814 l 364 0 l 536 0 l 536 814 z "},"U":{"ha":1051,"x_min":110,"x_max":942,"o":"m 942 972 l 771 972 l 771 413 q 706 210 771 278 q 526 142 640 142 q 346 213 411 142 q 281 419 281 283 l 281 972 l 110 972 l 110 413 q 139 227 110 307 q 222 93 168 147 q 353 12 276 39 q 524 -15 429 -15 q 697 12 619 -15 q 828 94 774 39 q 912 231 882 149 q 942 421 942 313 l 942 972 z "},"V":{"ha":1042,"x_min":42,"x_max":1000,"o":"m 524 225 l 231 972 l 42 972 l 446 -7 l 596 -7 l 1000 972 l 815 972 l 524 225 z "},"W":{"ha":1550,"x_min":50,"x_max":1500,"o":"m 467 251 l 235 972 l 50 972 l 389 -7 l 536 -7 l 775 692 l 1014 -7 l 1161 -7 l 1500 972 l 1321 972 l 1089 251 l 850 975 l 706 975 l 467 251 z "},"X":{"ha":1013,"x_min":51,"x_max":961,"o":"m 961 0 l 608 497 l 947 972 l 751 972 l 508 624 l 267 972 l 65 972 l 406 494 l 51 0 l 247 0 l 504 368 l 760 0 l 961 0 z "},"Y":{"ha":994,"x_min":25,"x_max":969,"o":"m 583 388 l 969 972 l 774 972 l 499 542 l 226 972 l 25 972 l 411 383 l 411 0 l 583 0 l 583 388 z "},"Z":{"ha":975,"x_min":90,"x_max":886,"o":"m 664 821 l 90 126 l 90 0 l 886 0 l 886 151 l 313 151 l 886 846 l 886 972 l 108 972 l 108 821 l 664 821 z "},"[":{"ha":631,"x_min":122,"x_max":549,"o":"m 549 972 l 122 972 l 122 -181 l 549 -181 l 549 -49 l 282 -49 l 282 840 l 549 840 l 549 972 z "},"\\":{"ha":724,"x_min":-15,"x_max":758,"o":"m 131 1108 l -15 1108 l 613 -178 l 758 -178 l 131 1108 z "},"]":{"ha":631,"x_min":82,"x_max":510,"o":"m 82 972 l 82 840 l 349 840 l 349 -49 l 82 -49 l 82 -181 l 510 -181 l 510 972 l 82 972 z "},"^":{"ha":694,"x_min":78,"x_max":617,"o":"m 346 868 l 488 685 l 617 685 l 407 974 l 288 974 l 78 685 l 204 685 l 346 868 z "},"_":{"ha":833,"x_min":-3,"x_max":836,"o":"m -3 -92 l -3 -222 l 836 -222 l 836 -92 l -3 -92 z "},"`":{"ha":694,"x_min":172,"x_max":472,"o":"m 342 826 l 472 826 l 325 1054 l 172 986 l 342 826 z "},"a":{"ha":815,"x_min":56,"x_max":721,"o":"m 721 0 l 721 435 q 642 663 721 582 q 399 744 563 744 q 244 728 308 744 q 119 683 181 711 l 165 549 q 264 582 215 569 q 375 594 313 594 q 509 554 463 594 q 556 438 556 514 l 556 419 q 466 442 513 433 q 353 450 419 450 q 234 435 289 450 q 140 392 179 421 q 78 318 100 363 q 56 214 56 274 l 56 211 q 77 113 56 156 q 134 42 99 71 q 217 -1 169 14 q 317 -15 264 -15 q 458 15 400 -15 q 554 90 517 46 l 554 0 l 721 0 m 558 265 q 544 202 558 231 q 503 153 529 174 q 441 122 476 133 q 364 111 406 111 q 263 139 304 111 q 222 219 222 167 l 222 222 q 267 310 222 279 q 390 340 311 340 q 483 332 439 340 q 558 311 526 324 l 558 265 z "},"b":{"ha":931,"x_min":106,"x_max":864,"o":"m 864 367 q 835 529 864 458 q 758 649 806 600 q 649 724 710 699 q 522 749 588 749 q 374 709 433 749 q 274 611 314 669 l 274 1014 l 106 1014 l 106 0 l 274 0 l 274 114 q 372 24 313 63 q 522 -15 432 -15 q 649 10 588 -15 q 759 84 711 35 q 835 204 807 133 q 864 367 864 275 m 693 367 q 676 269 693 313 q 631 194 660 225 q 565 147 603 164 q 483 131 526 131 q 401 147 440 131 q 333 195 363 164 q 287 269 304 226 q 269 367 269 313 q 287 464 269 421 q 333 538 304 507 q 401 586 363 569 q 483 603 440 603 q 565 586 526 603 q 631 539 603 569 q 676 465 660 508 q 693 367 693 421 z "},"c":{"ha":793,"x_min":65,"x_max":744,"o":"m 744 121 l 643 221 q 558 155 603 181 q 453 129 513 129 q 364 148 404 129 q 294 199 324 167 q 249 274 265 231 q 233 367 233 317 q 249 458 233 415 q 293 532 265 500 q 360 583 321 564 q 444 601 399 601 q 552 576 508 601 q 635 510 596 550 l 739 622 q 619 714 688 679 q 446 749 550 749 q 294 718 364 749 q 173 635 224 688 q 94 513 122 582 q 65 364 65 443 q 94 216 65 285 q 173 95 122 147 q 293 13 224 43 q 444 -17 363 -17 q 621 22 551 -17 q 744 121 690 60 z "},"d":{"ha":931,"x_min":68,"x_max":826,"o":"m 826 0 l 826 1014 l 658 1014 l 658 619 q 558 710 618 671 q 408 749 499 749 q 281 724 343 749 q 172 649 219 699 q 97 529 125 600 q 68 367 68 458 q 97 204 68 275 q 174 84 126 133 q 282 10 221 35 q 408 -15 343 -15 q 558 25 497 -15 q 658 122 618 65 l 658 0 l 826 0 m 661 367 q 644 269 661 313 q 597 195 626 226 q 529 147 568 164 q 449 131 490 131 q 367 147 406 131 q 300 194 329 164 q 254 269 271 225 q 238 367 238 313 q 254 466 238 422 q 300 540 271 510 q 367 587 329 571 q 449 603 406 603 q 529 586 490 603 q 597 538 568 569 q 644 464 626 507 q 661 367 661 421 z "},"e":{"ha":839,"x_min":65,"x_max":775,"o":"m 233 307 l 772 307 q 774 331 774 319 q 775 353 775 342 q 753 504 775 432 q 687 631 731 576 q 577 717 643 685 q 424 749 511 749 q 279 718 344 749 q 166 635 214 688 q 92 514 118 583 q 65 365 65 444 q 94 209 65 279 q 174 89 124 139 q 294 11 225 39 q 442 -17 363 -17 q 616 21 543 -17 q 742 121 689 58 l 643 208 q 553 143 599 165 q 444 121 507 121 q 306 169 363 121 q 233 307 249 217 m 232 418 q 294 558 243 504 q 422 611 344 611 q 497 596 464 611 q 553 555 529 581 q 590 494 576 529 q 608 418 604 458 l 232 418 z "},"f":{"ha":522,"x_min":50,"x_max":504,"o":"m 308 728 l 308 768 q 406 879 308 879 q 456 874 433 879 q 504 861 479 869 l 504 1003 q 444 1017 476 1011 q 368 1022 413 1022 q 201 963 260 1022 q 143 782 143 904 l 143 729 l 50 729 l 50 589 l 143 589 l 143 0 l 311 0 l 311 589 l 503 589 l 503 728 l 308 728 z "},"g":{"ha":931,"x_min":68,"x_max":826,"o":"m 826 150 l 826 733 l 658 733 l 658 624 q 555 712 615 675 q 401 749 494 749 q 277 725 338 749 q 170 657 217 701 q 96 549 124 613 q 68 403 68 485 q 96 257 68 321 q 170 149 124 193 q 276 81 217 104 q 401 58 336 58 q 553 96 492 58 q 660 193 614 133 l 660 136 q 600 -32 660 25 q 428 -89 540 -89 q 289 -68 353 -89 q 167 -11 225 -47 l 104 -137 q 432 -225 249 -225 q 724 -135 621 -225 q 826 150 826 -44 m 661 403 q 644 320 661 357 q 597 256 626 283 q 528 215 568 229 q 446 200 489 200 q 365 215 403 200 q 299 256 326 229 q 254 321 271 283 q 238 404 238 358 q 253 488 238 450 q 298 551 269 525 q 364 592 326 578 q 446 607 401 607 q 528 592 489 607 q 597 551 568 578 q 644 487 626 525 q 661 403 661 449 z "},"h":{"ha":861,"x_min":106,"x_max":764,"o":"m 274 414 q 319 548 274 500 q 439 596 365 596 q 555 549 514 596 q 596 417 596 503 l 596 0 l 764 0 l 764 467 q 696 672 764 596 q 503 749 628 749 q 426 738 460 749 q 363 710 392 728 q 313 669 335 692 q 274 619 292 646 l 274 1014 l 106 1014 l 106 0 l 274 0 l 274 414 z "},"i":{"ha":397,"x_min":108,"x_max":289,"o":"m 289 846 l 289 1006 l 108 1006 l 108 846 l 289 846 m 283 0 l 283 733 l 115 733 l 115 0 l 283 0 z "},"j":{"ha":397,"x_min":-11,"x_max":289,"o":"m 289 846 l 289 1006 l 108 1006 l 108 846 l 289 846 m 115 733 l 115 0 q 94 -69 115 -49 q 36 -89 72 -89 q -11 -85 14 -89 l -11 -219 q 27 -224 8 -222 q 69 -226 46 -226 q 228 -174 174 -226 q 283 -10 283 -122 l 283 733 l 115 733 z "},"k":{"ha":808,"x_min":106,"x_max":792,"o":"m 490 435 l 782 733 l 578 733 l 274 408 l 274 1014 l 106 1014 l 106 0 l 274 0 l 274 210 l 376 317 l 597 0 l 792 0 l 490 435 z "},"l":{"ha":397,"x_min":115,"x_max":283,"o":"m 283 0 l 283 1014 l 115 1014 l 115 0 l 283 0 z "},"m":{"ha":1319,"x_min":106,"x_max":1221,"o":"m 715 619 q 631 713 686 678 q 497 749 576 749 q 422 738 456 749 q 360 710 388 728 q 313 669 333 692 q 274 622 292 647 l 274 733 l 106 733 l 106 0 l 274 0 l 274 413 q 317 547 274 499 q 431 596 360 596 q 540 550 501 596 q 579 418 579 504 l 579 0 l 747 0 l 747 414 q 791 549 747 503 q 904 596 835 596 q 1014 550 975 596 q 1053 417 1053 504 l 1053 0 l 1221 0 l 1221 468 q 1153 676 1221 603 q 964 749 1085 749 q 820 713 881 749 q 715 619 760 678 z "},"n":{"ha":861,"x_min":106,"x_max":764,"o":"m 274 414 q 319 548 274 500 q 439 596 365 596 q 555 549 514 596 q 596 417 596 503 l 596 0 l 764 0 l 764 467 q 696 672 764 596 q 503 749 628 749 q 426 738 460 749 q 363 710 392 728 q 313 669 335 692 q 274 619 292 646 l 274 733 l 106 733 l 106 0 l 274 0 l 274 414 z "},"o":{"ha":913,"x_min":65,"x_max":847,"o":"m 847 367 q 818 515 847 446 q 737 637 789 585 q 613 719 685 689 q 457 749 542 749 q 301 718 372 749 q 177 635 229 688 q 95 513 125 583 q 65 364 65 443 q 94 216 65 285 q 176 95 124 147 q 299 13 228 43 q 454 -17 371 -17 q 611 14 539 -17 q 735 97 683 44 q 817 218 788 149 q 847 367 847 288 m 679 364 q 664 273 679 315 q 619 199 649 231 q 549 148 590 167 q 457 129 508 129 q 367 148 408 129 q 297 199 326 167 q 250 274 267 231 q 233 367 233 318 q 249 458 233 415 q 293 532 264 500 q 363 583 322 564 q 454 601 404 601 q 545 583 504 601 q 616 531 586 564 q 663 456 646 499 q 679 364 679 413 z "},"p":{"ha":931,"x_min":106,"x_max":864,"o":"m 864 367 q 835 529 864 458 q 758 649 806 600 q 649 724 710 699 q 522 749 588 749 q 374 709 433 749 q 274 611 314 669 l 274 733 l 106 733 l 106 -222 l 274 -222 l 274 114 q 372 24 313 63 q 522 -15 432 -15 q 649 10 588 -15 q 759 84 711 35 q 835 204 807 133 q 864 367 864 275 m 693 367 q 676 269 693 313 q 631 194 660 225 q 565 147 603 164 q 483 131 526 131 q 401 147 440 131 q 333 195 363 164 q 287 269 304 226 q 269 367 269 313 q 287 464 269 421 q 333 538 304 507 q 401 586 363 569 q 483 603 440 603 q 565 586 526 603 q 631 539 603 569 q 676 465 660 508 q 693 367 693 421 z "},"q":{"ha":931,"x_min":68,"x_max":826,"o":"m 826 -222 l 826 733 l 658 733 l 658 619 q 558 710 618 671 q 408 749 499 749 q 281 724 343 749 q 172 649 219 699 q 97 529 125 600 q 68 367 68 458 q 97 204 68 275 q 174 84 126 133 q 282 10 221 35 q 408 -15 343 -15 q 558 25 497 -15 q 658 122 618 65 l 658 -222 l 826 -222 m 661 367 q 644 269 661 313 q 597 195 626 226 q 529 147 568 164 q 449 131 490 131 q 367 147 406 131 q 300 194 329 164 q 254 269 271 225 q 238 367 238 313 q 254 466 238 422 q 300 540 271 510 q 367 587 329 571 q 449 603 406 603 q 529 586 490 603 q 597 538 568 569 q 644 464 626 507 q 661 367 661 421 z "},"r":{"ha":574,"x_min":106,"x_max":533,"o":"m 274 279 q 292 406 274 351 q 343 497 310 461 q 422 551 376 533 q 524 569 468 569 l 533 569 l 533 747 q 372 701 436 751 q 274 568 308 651 l 274 733 l 106 733 l 106 0 l 274 0 l 274 279 z "},"s":{"ha":694,"x_min":46,"x_max":629,"o":"m 629 217 l 629 219 q 608 304 629 269 q 555 363 588 339 q 482 404 522 388 q 401 433 442 421 q 340 453 369 443 q 287 476 310 464 q 250 502 264 488 q 236 536 236 517 l 236 539 q 263 592 236 571 q 339 613 290 613 q 439 594 385 613 q 546 543 493 575 l 613 663 q 483 724 554 701 q 343 746 413 746 q 241 731 289 746 q 158 686 193 715 q 102 615 122 657 q 82 522 82 574 l 82 519 q 103 431 82 467 q 156 372 124 396 q 230 332 189 347 q 311 304 271 317 q 373 285 343 294 q 426 265 403 276 q 462 238 449 253 q 475 201 475 222 l 475 199 q 445 141 475 163 q 361 119 415 119 q 242 142 304 119 q 121 210 181 165 l 46 96 q 197 14 115 42 q 357 -14 278 -14 q 464 1 414 -14 q 551 44 514 15 q 608 115 588 72 q 629 217 629 158 z "},"t":{"ha":569,"x_min":47,"x_max":506,"o":"m 308 589 l 506 589 l 506 733 l 308 733 l 308 935 l 140 935 l 140 733 l 47 733 l 47 589 l 140 589 l 140 203 q 156 101 140 142 q 199 35 171 60 q 267 -1 228 10 q 351 -12 306 -12 q 435 -3 399 -12 q 503 25 471 7 l 503 163 q 399 138 453 138 q 332 159 356 138 q 308 229 308 181 l 308 589 z "},"u":{"ha":861,"x_min":97,"x_max":756,"o":"m 588 319 q 542 185 588 233 q 422 138 496 138 q 306 184 347 138 q 265 317 265 231 l 265 733 l 97 733 l 97 267 q 165 61 97 138 q 358 -15 233 -15 q 497 23 443 -15 q 588 114 551 61 l 588 0 l 756 0 l 756 733 l 588 733 l 588 319 z "},"v":{"ha":826,"x_min":36,"x_max":789,"o":"m 414 194 l 217 733 l 36 733 l 338 -6 l 489 -6 l 789 733 l 613 733 l 414 194 z "},"w":{"ha":1196,"x_min":44,"x_max":1151,"o":"m 669 736 l 526 736 l 364 231 l 217 733 l 44 733 l 282 -6 l 432 -6 l 597 496 l 761 -6 l 911 -6 l 1151 733 l 983 733 l 833 231 l 669 736 z "},"x":{"ha":806,"x_min":42,"x_max":764,"o":"m 493 376 l 753 733 l 574 733 l 404 492 l 235 733 l 51 733 l 311 372 l 42 0 l 221 0 l 400 257 l 581 0 l 764 0 l 493 376 z "},"y":{"ha":828,"x_min":36,"x_max":789,"o":"m 789 733 l 614 733 l 424 189 l 215 733 l 36 733 l 342 0 q 297 -67 321 -49 q 238 -85 274 -85 q 187 -77 211 -85 q 139 -57 163 -69 l 82 -182 q 162 -215 121 -203 q 256 -226 203 -226 q 335 -215 300 -226 q 399 -180 369 -204 q 451 -117 428 -156 q 497 -21 475 -78 l 789 733 z "},"z":{"ha":778,"x_min":72,"x_max":710,"o":"m 496 596 l 72 115 l 72 0 l 710 0 l 710 138 l 286 138 l 710 618 l 710 733 l 88 733 l 88 596 l 496 596 z "},"{":{"ha":676,"x_min":72,"x_max":607,"o":"m 607 882 l 578 993 q 422 951 483 976 q 326 890 361 925 q 276 813 290 856 q 263 715 263 769 q 263 694 263 707 q 264 665 264 681 q 265 638 264 651 q 265 615 265 624 q 231 498 265 533 q 108 463 196 463 l 72 463 l 72 335 l 108 335 q 231 299 196 335 q 265 182 265 264 q 265 160 265 174 q 264 131 264 146 q 263 103 264 117 q 263 82 263 90 q 276 -16 263 28 q 326 -94 290 -60 q 422 -153 361 -128 q 578 -196 483 -179 l 607 -85 q 507 -50 544 -68 q 450 -10 469 -32 q 424 40 431 11 q 418 106 418 68 q 419 156 418 126 q 421 208 421 186 q 384 333 421 290 q 276 399 347 375 q 383 464 346 421 q 421 589 421 507 q 419 641 421 611 q 418 692 418 671 q 424 758 418 729 q 450 808 431 786 q 507 847 469 829 q 607 882 544 865 z "},"|":{"ha":460,"x_min":163,"x_max":297,"o":"m 297 -178 l 297 1108 l 163 1108 l 163 -178 l 297 -178 z "},"}":{"ha":676,"x_min":69,"x_max":604,"o":"m 69 -85 l 99 -196 q 254 -153 193 -179 q 351 -94 315 -128 q 400 -16 386 -60 q 414 82 414 28 q 413 103 414 90 q 413 131 413 117 q 412 160 413 146 q 411 182 411 174 q 446 299 411 264 q 568 335 481 335 l 604 335 l 604 463 l 568 463 q 446 498 481 463 q 411 615 411 533 q 412 638 411 624 q 413 665 413 651 q 413 694 413 681 q 414 715 414 707 q 400 813 414 769 q 351 890 386 856 q 254 951 315 925 q 99 993 193 976 l 69 882 q 169 847 132 865 q 226 808 207 829 q 252 758 246 786 q 258 692 258 729 q 257 641 258 671 q 256 589 256 611 q 292 465 256 507 q 400 399 329 422 q 293 333 331 376 q 256 208 256 290 q 257 156 256 186 q 258 106 258 126 q 252 40 258 68 q 226 -10 246 11 q 169 -50 207 -32 q 69 -85 132 -68 z "},"~":{"ha":688,"x_min":82,"x_max":606,"o":"m 606 506 l 513 533 q 482 481 497 497 q 436 464 467 464 q 395 472 418 464 q 347 491 372 481 q 294 510 322 501 q 238 519 267 519 q 140 475 174 519 q 82 347 106 431 l 175 318 q 206 371 190 354 q 251 388 221 388 q 292 378 269 388 q 340 359 315 369 q 393 340 365 349 q 450 332 421 332 q 548 376 514 332 q 606 506 582 421 z "},"Ä":{"ha":1097,"x_min":42,"x_max":1056,"o":"m 628 979 l 469 979 l 42 0 l 217 0 l 317 235 l 776 235 l 875 0 l 1056 0 l 628 979 m 714 386 l 379 386 l 546 775 l 714 386 m 772 1053 l 772 1217 l 601 1217 l 601 1053 l 772 1053 m 496 1053 l 496 1217 l 325 1217 l 325 1053 l 496 1053 z "},"Å":{"ha":1097,"x_min":42,"x_max":1056,"o":"m 456 950 l 42 0 l 217 0 l 317 235 l 776 235 l 875 0 l 1056 0 l 642 950 q 688 1002 669 971 q 707 1072 707 1033 q 694 1131 707 1103 q 659 1179 681 1158 q 608 1213 638 1200 q 549 1225 579 1225 q 488 1213 517 1225 q 438 1179 460 1200 q 403 1131 417 1158 q 390 1072 390 1103 q 409 1002 390 1033 q 456 950 428 971 m 635 1072 q 610 1011 635 1036 q 549 986 585 986 q 488 1011 513 986 q 463 1072 463 1036 q 488 1133 463 1108 q 549 1158 513 1158 q 610 1133 585 1158 q 635 1072 635 1108 m 714 386 l 379 386 l 546 775 l 714 386 z "},"Ç":{"ha":1025,"x_min":82,"x_max":971,"o":"m 479 -7 l 369 -168 l 515 -229 l 607 -15 q 721 1 669 -12 q 816 36 772 14 q 897 88 860 58 q 971 156 935 118 l 861 267 q 735 174 799 208 q 582 140 671 140 q 453 167 513 140 q 351 242 394 194 q 285 352 308 289 q 261 488 261 415 q 285 622 261 560 q 351 731 308 685 q 453 805 394 778 q 582 832 513 832 q 731 799 665 832 q 854 711 796 765 l 964 838 q 890 899 929 871 q 806 947 851 926 q 705 978 760 967 q 583 989 650 989 q 381 949 472 989 q 222 841 289 910 q 119 681 156 772 q 82 485 82 589 q 111 310 82 392 q 193 163 140 228 q 319 53 246 97 q 479 -7 392 10 z "},"É":{"ha":931,"x_min":125,"x_max":853,"o":"m 846 972 l 125 972 l 125 0 l 853 0 l 853 153 l 296 153 l 296 414 l 783 414 l 783 567 l 296 567 l 296 819 l 846 819 l 846 972 m 515 1053 l 685 1213 l 532 1281 l 385 1053 l 515 1053 z "},"Ñ":{"ha":1097,"x_min":125,"x_max":972,"o":"m 804 300 l 283 972 l 125 972 l 125 0 l 293 0 l 293 692 l 829 0 l 972 0 l 972 972 l 804 972 l 804 300 m 811 1225 l 718 1254 q 688 1201 703 1218 q 642 1185 672 1185 q 600 1193 622 1185 q 552 1212 578 1201 q 499 1231 526 1222 q 442 1240 471 1240 q 344 1196 378 1240 q 286 1067 310 1151 l 379 1039 q 410 1092 394 1075 q 456 1108 425 1108 q 497 1099 474 1108 q 545 1080 519 1090 q 599 1061 571 1069 q 656 1053 626 1053 q 753 1097 719 1053 q 811 1225 788 1142 z "},"Ö":{"ha":1181,"x_min":82,"x_max":1099,"o":"m 1099 488 q 1061 682 1099 590 q 957 842 1024 774 q 797 949 890 910 q 592 989 704 989 q 386 949 479 989 q 225 840 293 908 q 119 679 157 771 q 82 485 82 588 q 119 290 82 382 q 224 131 157 199 q 383 23 290 63 q 589 -17 476 -17 q 794 24 701 -17 q 956 133 888 64 q 1061 293 1024 201 q 1099 488 1099 385 m 919 485 q 895 351 919 414 q 828 241 871 288 q 724 167 785 194 q 592 140 664 140 q 458 168 519 140 q 353 243 397 196 q 285 353 310 290 q 261 488 261 417 q 285 622 261 558 q 353 731 310 685 q 456 805 396 778 q 589 832 517 832 q 722 804 661 832 q 827 729 783 776 q 895 619 871 682 q 919 485 919 556 m 814 1053 l 814 1217 l 643 1217 l 643 1053 l 814 1053 m 538 1053 l 538 1217 l 367 1217 l 367 1053 l 538 1053 z "},"Ü":{"ha":1051,"x_min":110,"x_max":942,"o":"m 942 972 l 771 972 l 771 413 q 706 210 771 278 q 526 142 640 142 q 346 213 411 142 q 281 419 281 283 l 281 972 l 110 972 l 110 413 q 139 227 110 307 q 222 93 168 147 q 353 12 276 39 q 524 -15 429 -15 q 697 12 619 -15 q 828 94 774 39 q 912 231 882 149 q 942 421 942 313 l 942 972 m 750 1051 l 750 1215 l 579 1215 l 579 1051 l 750 1051 m 474 1051 l 474 1215 l 303 1215 l 303 1051 l 474 1051 z "},"á":{"ha":815,"x_min":56,"x_max":721,"o":"m 721 0 l 721 435 q 642 663 721 582 q 399 744 563 744 q 244 728 308 744 q 119 683 181 711 l 165 549 q 264 582 215 569 q 375 594 313 594 q 509 554 463 594 q 556 438 556 514 l 556 419 q 466 442 513 433 q 353 450 419 450 q 234 435 289 450 q 140 392 179 421 q 78 318 100 363 q 56 214 56 274 l 56 211 q 77 113 56 156 q 134 42 99 71 q 217 -1 169 14 q 317 -15 264 -15 q 458 15 400 -15 q 554 90 517 46 l 554 0 l 721 0 m 558 265 q 544 202 558 231 q 503 153 529 174 q 441 122 476 133 q 364 111 406 111 q 263 139 304 111 q 222 219 222 167 l 222 222 q 267 310 222 279 q 390 340 311 340 q 483 332 439 340 q 558 311 526 324 l 558 265 m 457 826 l 626 986 l 474 1054 l 326 826 l 457 826 z "},"à":{"ha":815,"x_min":56,"x_max":721,"o":"m 721 0 l 721 435 q 642 663 721 582 q 399 744 563 744 q 244 728 308 744 q 119 683 181 711 l 165 549 q 264 582 215 569 q 375 594 313 594 q 509 554 463 594 q 556 438 556 514 l 556 419 q 466 442 513 433 q 353 450 419 450 q 234 435 289 450 q 140 392 179 421 q 78 318 100 363 q 56 214 56 274 l 56 211 q 77 113 56 156 q 134 42 99 71 q 217 -1 169 14 q 317 -15 264 -15 q 458 15 400 -15 q 554 90 517 46 l 554 0 l 721 0 m 558 265 q 544 202 558 231 q 503 153 529 174 q 441 122 476 133 q 364 111 406 111 q 263 139 304 111 q 222 219 222 167 l 222 222 q 267 310 222 279 q 390 340 311 340 q 483 332 439 340 q 558 311 526 324 l 558 265 m 357 826 l 488 826 l 340 1054 l 188 986 l 357 826 z "},"â":{"ha":815,"x_min":56,"x_max":721,"o":"m 721 0 l 721 435 q 642 663 721 582 q 399 744 563 744 q 244 728 308 744 q 119 683 181 711 l 165 549 q 264 582 215 569 q 375 594 313 594 q 509 554 463 594 q 556 438 556 514 l 556 419 q 466 442 513 433 q 353 450 419 450 q 234 435 289 450 q 140 392 179 421 q 78 318 100 363 q 56 214 56 274 l 56 211 q 77 113 56 156 q 134 42 99 71 q 217 -1 169 14 q 317 -15 264 -15 q 458 15 400 -15 q 554 90 517 46 l 554 0 l 721 0 m 558 265 q 544 202 558 231 q 503 153 529 174 q 441 122 476 133 q 364 111 406 111 q 263 139 304 111 q 222 219 222 167 l 222 222 q 267 310 222 279 q 390 340 311 340 q 483 332 439 340 q 558 311 526 324 l 558 265 m 406 919 l 513 826 l 646 826 l 485 1029 l 329 1029 l 168 826 l 299 826 l 406 919 z "},"ä":{"ha":815,"x_min":56,"x_max":721,"o":"m 721 0 l 721 435 q 642 663 721 582 q 399 744 563 744 q 244 728 308 744 q 119 683 181 711 l 165 549 q 264 582 215 569 q 375 594 313 594 q 509 554 463 594 q 556 438 556 514 l 556 419 q 466 442 513 433 q 353 450 419 450 q 234 435 289 450 q 140 392 179 421 q 78 318 100 363 q 56 214 56 274 l 56 211 q 77 113 56 156 q 134 42 99 71 q 217 -1 169 14 q 317 -15 264 -15 q 458 15 400 -15 q 554 90 517 46 l 554 0 l 721 0 m 558 265 q 544 202 558 231 q 503 153 529 174 q 441 122 476 133 q 364 111 406 111 q 263 139 304 111 q 222 219 222 167 l 222 222 q 267 310 222 279 q 390 340 311 340 q 483 332 439 340 q 558 311 526 324 l 558 265 m 631 826 l 631 990 l 460 990 l 460 826 l 631 826 m 354 826 l 354 990 l 183 990 l 183 826 l 354 826 z "},"ã":{"ha":815,"x_min":56,"x_max":721,"o":"m 721 0 l 721 435 q 642 663 721 582 q 399 744 563 744 q 244 728 308 744 q 119 683 181 711 l 165 549 q 264 582 215 569 q 375 594 313 594 q 509 554 463 594 q 556 438 556 514 l 556 419 q 466 442 513 433 q 353 450 419 450 q 234 435 289 450 q 140 392 179 421 q 78 318 100 363 q 56 214 56 274 l 56 211 q 77 113 56 156 q 134 42 99 71 q 217 -1 169 14 q 317 -15 264 -15 q 458 15 400 -15 q 554 90 517 46 l 554 0 l 721 0 m 558 265 q 544 202 558 231 q 503 153 529 174 q 441 122 476 133 q 364 111 406 111 q 263 139 304 111 q 222 219 222 167 l 222 222 q 267 310 222 279 q 390 340 311 340 q 483 332 439 340 q 558 311 526 324 l 558 265 m 671 999 l 578 1028 q 547 975 563 992 q 501 958 532 958 q 460 967 482 958 q 412 985 438 975 q 358 1005 386 996 q 301 1014 331 1014 q 203 969 238 1014 q 146 840 169 925 l 239 813 q 269 865 254 849 q 315 882 285 882 q 356 873 333 882 q 405 853 379 864 q 458 835 431 843 q 515 826 486 826 q 613 871 579 826 q 671 999 647 915 z "},"å":{"ha":815,"x_min":56,"x_max":721,"o":"m 721 0 l 721 435 q 642 663 721 582 q 399 744 563 744 q 244 728 308 744 q 119 683 181 711 l 165 549 q 264 582 215 569 q 375 594 313 594 q 509 554 463 594 q 556 438 556 514 l 556 419 q 466 442 513 433 q 353 450 419 450 q 234 435 289 450 q 140 392 179 421 q 78 318 100 363 q 56 214 56 274 l 56 211 q 77 113 56 156 q 134 42 99 71 q 217 -1 169 14 q 317 -15 264 -15 q 458 15 400 -15 q 554 90 517 46 l 554 0 l 721 0 m 558 265 q 544 202 558 231 q 503 153 529 174 q 441 122 476 133 q 364 111 406 111 q 263 139 304 111 q 222 219 222 167 l 222 222 q 267 310 222 279 q 390 340 311 340 q 483 332 439 340 q 558 311 526 324 l 558 265 m 565 976 q 552 1035 565 1007 q 517 1083 539 1063 q 467 1117 496 1104 q 407 1129 438 1129 q 347 1117 375 1129 q 297 1083 318 1104 q 262 1035 275 1063 q 249 976 249 1007 q 262 917 249 944 q 297 868 275 889 q 347 835 318 847 q 407 824 375 824 q 467 835 438 824 q 517 868 496 847 q 552 917 539 889 q 565 976 565 944 m 493 976 q 468 915 493 940 q 407 890 443 890 q 346 915 371 890 q 321 976 321 940 q 346 1038 321 1013 q 407 1063 371 1063 q 468 1038 443 1063 q 493 976 493 1013 z "},"ç":{"ha":793,"x_min":65,"x_max":744,"o":"m 347 -4 l 236 -168 l 383 -229 l 474 -15 q 631 28 568 -10 q 744 121 693 65 l 643 221 q 558 155 603 181 q 453 129 513 129 q 364 148 404 129 q 294 199 324 167 q 249 274 265 231 q 233 367 233 317 q 249 458 233 415 q 293 532 265 500 q 360 583 321 564 q 444 601 399 601 q 552 576 508 601 q 635 510 596 550 l 739 622 q 619 714 688 679 q 446 749 550 749 q 294 718 364 749 q 173 635 224 688 q 94 513 122 582 q 65 364 65 443 q 86 238 65 297 q 144 129 107 178 q 233 46 181 81 q 347 -4 285 11 z "},"é":{"ha":839,"x_min":65,"x_max":775,"o":"m 233 307 l 772 307 q 774 331 774 319 q 775 353 775 342 q 753 504 775 432 q 687 631 731 576 q 577 717 643 685 q 424 749 511 749 q 279 718 344 749 q 166 635 214 688 q 92 514 118 583 q 65 365 65 444 q 94 209 65 279 q 174 89 124 139 q 294 11 225 39 q 442 -17 363 -17 q 616 21 543 -17 q 742 121 689 58 l 643 208 q 553 143 599 165 q 444 121 507 121 q 306 169 363 121 q 233 307 249 217 m 232 418 q 294 558 243 504 q 422 611 344 611 q 497 596 464 611 q 553 555 529 581 q 590 494 576 529 q 608 418 604 458 l 232 418 m 476 826 l 646 986 l 493 1054 l 346 826 l 476 826 z "},"è":{"ha":839,"x_min":65,"x_max":775,"o":"m 233 307 l 772 307 q 774 331 774 319 q 775 353 775 342 q 753 504 775 432 q 687 631 731 576 q 577 717 643 685 q 424 749 511 749 q 279 718 344 749 q 166 635 214 688 q 92 514 118 583 q 65 365 65 444 q 94 209 65 279 q 174 89 124 139 q 294 11 225 39 q 442 -17 363 -17 q 616 21 543 -17 q 742 121 689 58 l 643 208 q 553 143 599 165 q 444 121 507 121 q 306 169 363 121 q 233 307 249 217 m 232 418 q 294 558 243 504 q 422 611 344 611 q 497 596 464 611 q 553 555 529 581 q 590 494 576 529 q 608 418 604 458 l 232 418 m 363 826 l 493 826 l 346 1054 l 193 986 l 363 826 z "},"ê":{"ha":839,"x_min":65,"x_max":775,"o":"m 233 307 l 772 307 q 774 331 774 319 q 775 353 775 342 q 753 504 775 432 q 687 631 731 576 q 577 717 643 685 q 424 749 511 749 q 279 718 344 749 q 166 635 214 688 q 92 514 118 583 q 65 365 65 444 q 94 209 65 279 q 174 89 124 139 q 294 11 225 39 q 442 -17 363 -17 q 616 21 543 -17 q 742 121 689 58 l 643 208 q 553 143 599 165 q 444 121 507 121 q 306 169 363 121 q 233 307 249 217 m 232 418 q 294 558 243 504 q 422 611 344 611 q 497 596 464 611 q 553 555 529 581 q 590 494 576 529 q 608 418 604 458 l 232 418 m 419 919 l 526 826 l 660 826 l 499 1029 l 343 1029 l 182 826 l 313 826 l 419 919 z "},"ë":{"ha":839,"x_min":65,"x_max":775,"o":"m 233 307 l 772 307 q 774 331 774 319 q 775 353 775 342 q 753 504 775 432 q 687 631 731 576 q 577 717 643 685 q 424 749 511 749 q 279 718 344 749 q 166 635 214 688 q 92 514 118 583 q 65 365 65 444 q 94 209 65 279 q 174 89 124 139 q 294 11 225 39 q 442 -17 363 -17 q 616 21 543 -17 q 742 121 689 58 l 643 208 q 553 143 599 165 q 444 121 507 121 q 306 169 363 121 q 233 307 249 217 m 232 418 q 294 558 243 504 q 422 611 344 611 q 497 596 464 611 q 553 555 529 581 q 590 494 576 529 q 608 418 604 458 l 232 418 m 644 826 l 644 990 l 474 990 l 474 826 l 644 826 m 368 826 l 368 990 l 197 990 l 197 826 l 368 826 z "},"í":{"ha":397,"x_min":115,"x_max":428,"o":"m 283 0 l 283 733 l 115 733 l 115 0 l 283 0 m 258 826 l 428 986 l 275 1054 l 128 826 l 258 826 z "},"ì":{"ha":397,"x_min":115,"x_max":417,"o":"m 283 0 l 283 733 l 115 733 l 115 0 l 283 0 m 286 826 l 417 826 l 269 1054 l 117 986 l 286 826 z "},"î":{"ha":397,"x_min":115,"x_max":593,"o":"m 283 0 l 283 733 l 115 733 l 115 0 l 283 0 m 353 919 l 460 826 l 593 826 l 432 1029 l 276 1029 l 115 826 l 246 826 l 353 919 z "},"ï":{"ha":397,"x_min":115,"x_max":564,"o":"m 283 0 l 283 733 l 115 733 l 115 0 l 283 0 m 564 826 l 564 990 l 393 990 l 393 826 l 564 826 m 288 826 l 288 990 l 117 990 l 117 826 l 288 826 z "},"ñ":{"ha":861,"x_min":106,"x_max":764,"o":"m 274 414 q 319 548 274 500 q 439 596 365 596 q 555 549 514 596 q 596 417 596 503 l 596 0 l 764 0 l 764 467 q 696 672 764 596 q 503 749 628 749 q 426 738 460 749 q 363 710 392 728 q 313 669 335 692 q 274 619 292 646 l 274 733 l 106 733 l 106 0 l 274 0 l 274 414 m 699 999 l 606 1028 q 575 975 590 992 q 529 958 560 958 q 488 967 510 958 q 440 985 465 975 q 386 1005 414 996 q 329 1014 358 1014 q 231 969 265 1014 q 174 840 197 925 l 267 813 q 297 865 282 849 q 343 882 313 882 q 384 873 361 882 q 433 853 407 864 q 486 835 458 843 q 543 826 514 826 q 641 871 607 826 q 699 999 675 915 z "},"ó":{"ha":913,"x_min":65,"x_max":847,"o":"m 847 367 q 818 515 847 446 q 737 637 789 585 q 613 719 685 689 q 457 749 542 749 q 301 718 372 749 q 177 635 229 688 q 95 513 125 583 q 65 364 65 443 q 94 216 65 285 q 176 95 124 147 q 299 13 228 43 q 454 -17 371 -17 q 611 14 539 -17 q 735 97 683 44 q 817 218 788 149 q 847 367 847 288 m 679 364 q 664 273 679 315 q 619 199 649 231 q 549 148 590 167 q 457 129 508 129 q 367 148 408 129 q 297 199 326 167 q 250 274 267 231 q 233 367 233 318 q 249 458 233 415 q 293 532 264 500 q 363 583 322 564 q 454 601 404 601 q 545 583 504 601 q 616 531 586 564 q 663 456 646 499 q 679 364 679 413 m 521 826 l 690 986 l 538 1054 l 390 826 l 521 826 z "},"ò":{"ha":913,"x_min":65,"x_max":847,"o":"m 847 367 q 818 515 847 446 q 737 637 789 585 q 613 719 685 689 q 457 749 542 749 q 301 718 372 749 q 177 635 229 688 q 95 513 125 583 q 65 364 65 443 q 94 216 65 285 q 176 95 124 147 q 299 13 228 43 q 454 -17 371 -17 q 611 14 539 -17 q 735 97 683 44 q 817 218 788 149 q 847 367 847 288 m 679 364 q 664 273 679 315 q 619 199 649 231 q 549 148 590 167 q 457 129 508 129 q 367 148 408 129 q 297 199 326 167 q 250 274 267 231 q 233 367 233 318 q 249 458 233 415 q 293 532 264 500 q 363 583 322 564 q 454 601 404 601 q 545 583 504 601 q 616 531 586 564 q 663 456 646 499 q 679 364 679 413 m 390 826 l 521 826 l 374 1054 l 221 986 l 390 826 z "},"ô":{"ha":913,"x_min":65,"x_max":847,"o":"m 847 367 q 818 515 847 446 q 737 637 789 585 q 613 719 685 689 q 457 749 542 749 q 301 718 372 749 q 177 635 229 688 q 95 513 125 583 q 65 364 65 443 q 94 216 65 285 q 176 95 124 147 q 299 13 228 43 q 454 -17 371 -17 q 611 14 539 -17 q 735 97 683 44 q 817 218 788 149 q 847 367 847 288 m 679 364 q 664 273 679 315 q 619 199 649 231 q 549 148 590 167 q 457 129 508 129 q 367 148 408 129 q 297 199 326 167 q 250 274 267 231 q 233 367 233 318 q 249 458 233 415 q 293 532 264 500 q 363 583 322 564 q 454 601 404 601 q 545 583 504 601 q 616 531 586 564 q 663 456 646 499 q 679 364 679 413 m 454 919 l 561 826 l 694 826 l 533 1029 l 378 1029 l 217 826 l 347 826 l 454 919 z "},"ö":{"ha":913,"x_min":65,"x_max":847,"o":"m 847 367 q 818 515 847 446 q 737 637 789 585 q 613 719 685 689 q 457 749 542 749 q 301 718 372 749 q 177 635 229 688 q 95 513 125 583 q 65 364 65 443 q 94 216 65 285 q 176 95 124 147 q 299 13 228 43 q 454 -17 371 -17 q 611 14 539 -17 q 735 97 683 44 q 817 218 788 149 q 847 367 847 288 m 679 364 q 664 273 679 315 q 619 199 649 231 q 549 148 590 167 q 457 129 508 129 q 367 148 408 129 q 297 199 326 167 q 250 274 267 231 q 233 367 233 318 q 249 458 233 415 q 293 532 264 500 q 363 583 322 564 q 454 601 404 601 q 545 583 504 601 q 616 531 586 564 q 663 456 646 499 q 679 364 679 413 m 679 826 l 679 990 l 508 990 l 508 826 l 679 826 m 403 826 l 403 990 l 232 990 l 232 826 l 403 826 z "},"õ":{"ha":913,"x_min":65,"x_max":847,"o":"m 847 367 q 818 515 847 446 q 737 637 789 585 q 613 719 685 689 q 457 749 542 749 q 301 718 372 749 q 177 635 229 688 q 95 513 125 583 q 65 364 65 443 q 94 216 65 285 q 176 95 124 147 q 299 13 228 43 q 454 -17 371 -17 q 611 14 539 -17 q 735 97 683 44 q 817 218 788 149 q 847 367 847 288 m 679 364 q 664 273 679 315 q 619 199 649 231 q 549 148 590 167 q 457 129 508 129 q 367 148 408 129 q 297 199 326 167 q 250 274 267 231 q 233 367 233 318 q 249 458 233 415 q 293 532 264 500 q 363 583 322 564 q 454 601 404 601 q 545 583 504 601 q 616 531 586 564 q 663 456 646 499 q 679 364 679 413 m 718 999 l 625 1028 q 594 975 610 992 q 549 958 579 958 q 507 967 529 958 q 459 985 485 975 q 406 1005 433 996 q 349 1014 378 1014 q 251 969 285 1014 q 193 840 217 925 l 286 813 q 317 865 301 849 q 363 882 332 882 q 403 873 381 882 q 452 853 426 864 q 506 835 478 843 q 563 826 533 826 q 660 871 626 826 q 718 999 694 915 z "},"ú":{"ha":861,"x_min":97,"x_max":756,"o":"m 588 319 q 542 185 588 233 q 422 138 496 138 q 306 184 347 138 q 265 317 265 231 l 265 733 l 97 733 l 97 267 q 165 61 97 138 q 358 -15 233 -15 q 497 23 443 -15 q 588 114 551 61 l 588 0 l 756 0 l 756 733 l 588 733 l 588 319 m 476 825 l 646 985 l 493 1053 l 346 825 l 476 825 z "},"ù":{"ha":861,"x_min":97,"x_max":756,"o":"m 588 319 q 542 185 588 233 q 422 138 496 138 q 306 184 347 138 q 265 317 265 231 l 265 733 l 97 733 l 97 267 q 165 61 97 138 q 358 -15 233 -15 q 497 23 443 -15 q 588 114 551 61 l 588 0 l 756 0 l 756 733 l 588 733 l 588 319 m 382 825 l 513 825 l 365 1053 l 213 985 l 382 825 z "},"û":{"ha":861,"x_min":97,"x_max":756,"o":"m 588 319 q 542 185 588 233 q 422 138 496 138 q 306 184 347 138 q 265 317 265 231 l 265 733 l 97 733 l 97 267 q 165 61 97 138 q 358 -15 233 -15 q 497 23 443 -15 q 588 114 551 61 l 588 0 l 756 0 l 756 733 l 588 733 l 588 319 m 429 919 l 536 826 l 669 826 l 508 1029 l 353 1029 l 192 826 l 322 826 l 429 919 z "},"ü":{"ha":861,"x_min":97,"x_max":756,"o":"m 588 319 q 542 185 588 233 q 422 138 496 138 q 306 184 347 138 q 265 317 265 231 l 265 733 l 97 733 l 97 267 q 165 61 97 138 q 358 -15 233 -15 q 497 23 443 -15 q 588 114 551 61 l 588 0 l 756 0 l 756 733 l 588 733 l 588 319 m 654 826 l 654 990 l 483 990 l 483 826 l 654 826 m 378 826 l 378 990 l 207 990 l 207 826 l 378 826 z "},"†":{"ha":569,"x_min":78,"x_max":492,"o":"m 322 713 l 492 700 l 492 799 l 324 786 l 340 972 l 229 972 l 246 786 l 78 799 l 78 700 l 247 713 l 235 331 l 335 331 l 322 713 z "},"°":{"ha":654,"x_min":96,"x_max":558,"o":"m 558 756 q 540 842 558 801 q 488 913 521 882 q 414 963 456 944 q 326 981 372 981 q 239 963 281 981 q 165 913 197 944 q 115 842 133 882 q 96 756 96 801 q 115 669 96 710 q 165 597 133 628 q 239 547 197 565 q 326 529 281 529 q 414 547 372 529 q 488 597 456 565 q 540 669 521 628 q 558 756 558 710 m 458 756 q 449 703 458 728 q 421 661 439 679 q 379 632 403 643 q 326 621 356 621 q 274 632 299 621 q 233 661 250 643 q 206 703 215 679 q 196 756 196 728 q 206 806 196 782 q 233 849 215 831 q 274 878 250 867 q 326 889 299 889 q 379 878 356 889 q 421 849 403 867 q 449 806 439 831 q 458 756 458 782 z "},"¢":{"ha":807,"x_min":72,"x_max":747,"o":"m 747 251 l 650 347 q 570 286 614 311 q 474 258 526 261 q 460 260 464 258 l 547 708 q 598 680 575 697 q 644 640 621 663 l 746 749 q 674 813 713 785 q 582 857 635 842 l 607 981 l 485 981 l 464 875 l 451 875 q 300 844 369 875 q 180 762 231 814 q 101 640 129 710 q 72 492 72 571 q 90 373 72 429 q 141 269 108 317 q 219 187 174 222 q 319 132 265 151 l 292 -8 l 414 -8 l 436 113 q 453 111 442 111 q 623 151 553 113 q 747 251 693 189 m 440 729 l 354 282 q 268 367 300 311 q 236 494 236 424 q 251 583 236 542 q 293 657 267 625 q 356 708 319 689 q 438 729 393 726 l 440 729 z "},"£":{"ha":894,"x_min":88,"x_max":824,"o":"m 197 531 l 88 531 l 88 386 l 197 386 l 197 142 l 88 108 l 88 0 l 821 0 l 821 149 l 369 149 l 369 386 l 715 386 l 715 531 l 369 531 l 369 654 q 408 781 369 735 q 518 828 447 828 q 616 801 576 828 q 693 726 656 775 l 824 831 q 769 892 799 864 q 703 942 740 921 q 621 974 667 963 q 517 986 575 986 q 281 898 364 986 q 197 658 197 810 l 197 531 z "},"§":{"ha":878,"x_min":81,"x_max":797,"o":"m 797 486 q 728 608 797 563 q 497 690 658 654 q 405 715 440 703 q 349 738 369 726 q 322 761 329 749 q 314 789 314 774 q 341 839 314 819 q 426 858 368 858 q 547 831 493 858 q 650 760 601 804 l 746 854 q 608 951 688 917 q 425 986 528 986 q 224 931 296 986 q 153 782 153 875 q 229 649 153 697 q 122 592 163 631 q 81 486 81 553 q 97 417 81 447 q 150 364 114 388 q 243 320 186 340 q 381 282 300 300 q 472 258 436 269 q 528 235 508 246 q 556 211 549 224 q 564 183 564 199 q 537 133 564 153 q 451 114 510 114 q 331 141 385 114 q 228 213 276 168 l 132 118 q 270 21 190 56 q 453 -14 350 -14 q 653 42 582 -14 q 725 190 725 97 q 649 324 725 275 q 756 381 715 342 q 797 486 797 419 m 646 463 q 617 408 646 431 q 539 386 589 386 q 481 392 515 386 q 394 411 447 397 q 269 456 306 433 q 232 510 232 478 q 260 564 232 542 q 339 586 289 586 q 396 581 363 586 q 483 561 429 575 q 609 517 572 539 q 646 463 646 494 z "},"•":{"ha":682,"x_min":144,"x_max":538,"o":"m 538 489 q 522 565 538 529 q 480 628 507 601 q 417 669 453 654 q 340 685 381 685 q 265 669 300 685 q 202 628 229 654 q 160 565 175 601 q 144 489 144 529 q 160 413 144 449 q 202 350 175 376 q 265 308 229 324 q 340 293 300 293 q 417 308 381 293 q 480 350 453 324 q 522 413 507 376 q 538 489 538 449 z "},"¶":{"ha":774,"x_min":56,"x_max":653,"o":"m 432 972 q 279 951 349 972 q 160 888 210 929 q 83 789 111 847 q 56 656 56 731 q 86 518 56 578 q 170 419 117 458 q 297 359 224 379 q 456 339 369 339 l 481 339 l 481 0 l 653 0 l 653 972 l 432 972 z "},"ß":{"ha":861,"x_min":106,"x_max":793,"o":"m 735 761 q 715 865 735 817 q 656 948 694 913 q 563 1003 618 983 q 436 1024 507 1024 q 299 1001 360 1024 q 194 935 238 978 q 128 833 151 893 q 106 697 106 772 l 106 0 l 272 0 l 272 703 q 315 833 272 785 q 428 881 358 881 q 530 844 492 881 q 568 746 568 808 q 523 630 568 676 q 411 551 478 583 l 411 438 q 566 387 507 426 q 625 278 625 347 q 569 167 625 206 q 411 126 513 129 l 411 -3 q 569 12 499 -6 q 690 65 640 29 q 766 153 739 100 q 793 274 793 206 q 776 367 793 326 q 729 437 758 407 q 662 488 700 467 q 582 522 624 508 q 640 560 613 539 q 689 611 668 582 q 722 677 710 640 q 735 761 735 714 z "},"®":{"ha":1153,"x_min":74,"x_max":1079,"o":"m 1079 488 q 1040 682 1079 590 q 934 842 1001 774 q 775 949 867 910 q 578 989 683 989 q 380 949 472 989 q 219 840 288 908 q 113 679 151 771 q 74 485 74 588 q 113 290 74 382 q 219 131 151 199 q 378 23 286 63 q 575 -17 469 -17 q 773 24 681 -17 q 933 133 865 64 q 1040 293 1001 201 q 1079 488 1079 385 m 1026 488 q 992 310 1026 393 q 897 167 957 228 q 753 69 836 106 q 575 33 671 33 q 397 69 479 33 q 255 165 315 104 q 160 308 194 226 q 126 485 126 390 q 161 661 126 578 q 256 806 196 744 q 399 903 317 867 q 578 939 482 939 q 756 903 674 939 q 898 807 838 868 q 992 663 958 746 q 1026 488 1026 581 m 811 596 q 756 719 811 675 q 608 764 700 764 l 374 764 l 374 238 l 474 238 l 474 419 l 583 419 l 711 238 l 831 238 l 689 436 q 777 491 743 451 q 811 596 811 531 m 708 590 q 681 529 708 551 q 604 507 653 507 l 474 507 l 474 674 l 604 674 q 681 652 653 674 q 708 590 708 631 z "},"©":{"ha":1153,"x_min":74,"x_max":1079,"o":"m 1079 488 q 1040 682 1079 590 q 934 842 1001 774 q 775 949 867 910 q 578 989 683 989 q 380 949 472 989 q 219 840 288 908 q 113 679 151 771 q 74 485 74 588 q 113 290 74 382 q 219 131 151 199 q 378 23 286 63 q 575 -17 469 -17 q 773 24 681 -17 q 933 133 865 64 q 1040 293 1001 201 q 1079 488 1079 385 m 1026 488 q 992 310 1026 393 q 897 167 957 228 q 753 69 836 106 q 575 33 671 33 q 397 69 479 33 q 255 165 315 104 q 160 308 194 226 q 126 485 126 390 q 161 661 126 578 q 256 806 196 744 q 399 903 317 867 q 578 939 482 939 q 756 903 674 939 q 898 807 838 868 q 992 663 958 746 q 1026 488 1026 581 m 796 315 l 729 381 q 665 333 697 350 q 585 315 632 315 q 519 329 549 315 q 467 367 489 343 q 433 424 446 392 q 421 493 421 457 q 433 563 421 531 q 467 619 444 594 q 519 657 489 643 q 585 671 549 671 q 661 653 626 671 q 726 608 696 636 l 792 683 q 707 742 754 719 q 585 765 660 765 q 476 744 525 765 q 391 685 426 722 q 335 597 356 647 q 315 492 315 547 q 335 385 315 435 q 391 299 356 336 q 476 242 426 263 q 582 221 525 221 q 706 246 657 221 q 796 315 754 271 z "},"™":{"ha":958,"x_min":36,"x_max":904,"o":"m 825 849 l 825 544 l 904 544 l 904 972 l 819 972 l 690 769 l 561 972 l 474 972 l 474 544 l 553 544 l 553 849 l 685 643 l 693 643 l 825 849 m 250 897 l 382 897 l 382 972 l 36 972 l 36 897 l 168 897 l 168 544 l 250 544 l 250 897 z "},"´":{"ha":694,"x_min":222,"x_max":522,"o":"m 353 826 l 522 986 l 369 1054 l 222 826 l 353 826 z "},"¨":{"ha":694,"x_min":124,"x_max":571,"o":"m 571 826 l 571 990 l 400 990 l 400 826 l 571 826 m 294 826 l 294 990 l 124 990 l 124 826 l 294 826 z "},"Æ":{"ha":1451,"x_min":17,"x_max":1374,"o":"m 322 235 l 676 235 l 676 0 l 1374 0 l 1374 153 l 847 153 l 847 414 l 1304 414 l 1304 567 l 847 567 l 847 819 l 1367 819 l 1367 972 l 560 972 l 17 0 l 193 0 l 322 235 m 649 824 l 676 824 l 676 386 l 404 386 l 649 824 z "},"Ø":{"ha":1181,"x_min":71,"x_max":1110,"o":"m 1099 488 q 1066 671 1099 585 q 972 824 1033 757 l 1110 979 l 942 979 l 875 906 q 744 967 815 946 q 592 989 674 989 q 386 949 479 989 q 225 840 293 908 q 119 679 157 771 q 82 485 82 588 q 115 301 82 388 q 208 149 147 215 l 71 -7 l 239 -7 l 306 67 q 436 5 365 26 q 589 -17 507 -17 q 794 24 701 -17 q 956 133 888 64 q 1061 293 1024 201 q 1099 488 1099 385 m 767 781 l 322 279 q 274 376 290 324 q 257 488 257 429 q 281 622 257 558 q 350 732 306 685 q 455 807 394 779 q 589 835 515 835 q 685 820 640 835 q 767 781 731 806 m 924 485 q 899 351 924 414 q 831 240 875 288 q 725 165 786 193 q 592 138 664 138 q 495 152 540 138 q 414 192 450 167 l 858 693 q 907 596 890 649 q 924 485 924 543 z "},"±":{"ha":847,"x_min":54,"x_max":778,"o":"m 778 278 q 765 357 778 322 q 728 419 751 392 q 674 465 706 446 q 607 499 643 485 q 663 533 636 513 q 709 582 689 554 q 740 646 729 610 q 751 728 751 682 q 727 833 751 785 q 659 915 703 881 q 553 969 615 950 q 417 989 492 989 q 306 976 356 989 q 216 940 257 964 q 140 883 175 917 q 74 810 104 850 l 193 713 q 292 802 242 769 q 414 835 343 835 q 538 798 493 835 q 582 703 582 761 q 533 601 582 639 q 399 563 483 563 l 290 563 l 290 418 l 394 418 q 552 383 496 418 q 608 279 608 347 q 562 176 608 214 q 435 138 515 138 q 287 171 350 138 q 172 263 224 204 l 54 153 q 217 30 121 76 q 432 -17 313 -17 q 577 6 513 -17 q 686 67 642 28 q 754 161 731 107 q 778 278 778 215 z "},"¥":{"ha":953,"x_min":26,"x_max":926,"o":"m 558 367 l 826 367 l 826 490 l 604 490 l 926 972 l 733 972 l 479 565 l 225 972 l 26 972 l 347 490 l 126 490 l 126 367 l 394 367 l 394 265 l 126 265 l 126 142 l 394 142 l 394 0 l 558 0 l 558 142 l 826 142 l 826 265 l 558 265 l 558 367 z "},"µ":{"ha":1181,"x_min":82,"x_max":1175,"o":"m 1099 488 q 1061 682 1099 590 q 957 842 1024 774 q 797 949 890 910 q 592 989 704 989 q 386 949 479 989 q 225 840 293 908 q 119 679 157 771 q 82 485 82 588 q 119 290 82 382 q 224 131 157 199 q 383 23 290 63 q 589 -17 476 -17 q 764 14 679 -17 l 925 -140 l 1175 -140 l 1175 -129 l 932 113 q 1055 280 1011 183 q 1099 488 1099 376 m 919 485 q 895 351 919 414 q 828 241 871 288 q 724 167 785 194 q 592 140 664 140 q 458 168 519 140 q 353 243 397 196 q 285 353 310 290 q 261 488 261 417 q 285 622 261 558 q 353 731 310 685 q 456 805 396 778 q 589 832 517 832 q 722 804 661 832 q 827 729 783 776 q 895 619 871 682 q 919 485 919 556 z "},"π":{"ha":1153,"x_min":74,"x_max":1079,"o":"m 1079 488 q 1040 682 1079 590 q 934 842 1001 774 q 775 949 867 910 q 578 989 683 989 q 380 949 472 989 q 219 840 288 908 q 113 679 151 771 q 74 485 74 588 q 113 290 74 382 q 219 131 151 199 q 378 23 286 63 q 575 -17 469 -17 q 773 24 681 -17 q 933 133 865 64 q 1040 293 1001 201 q 1079 488 1079 385 m 1026 488 q 992 310 1026 393 q 897 167 957 228 q 753 69 836 106 q 575 33 671 33 q 397 69 479 33 q 255 165 315 104 q 160 308 194 226 q 126 485 126 390 q 161 661 126 578 q 256 806 196 744 q 399 903 317 867 q 578 939 482 939 q 756 903 674 939 q 898 807 838 868 q 992 663 958 746 q 1026 488 1026 581 m 814 581 q 759 712 814 664 q 610 760 704 760 l 397 760 l 397 232 l 500 232 l 500 399 l 599 399 q 681 410 642 399 q 750 444 721 421 q 797 501 779 467 q 814 581 814 535 m 710 579 q 681 514 710 539 q 601 489 651 489 l 500 489 l 500 668 l 601 668 q 681 646 651 668 q 710 579 710 624 z "},"ª":{"ha":542,"x_min":74,"x_max":449,"o":"m 443 568 l 443 807 q 399 933 443 889 q 267 976 356 976 q 182 967 217 976 q 111 942 147 958 l 138 867 q 194 885 167 878 q 253 893 221 893 q 350 808 350 893 l 350 801 q 302 813 326 808 q 244 817 278 817 q 124 785 169 817 q 78 686 78 753 q 90 631 78 654 q 121 592 101 607 q 166 568 140 576 q 221 560 192 560 q 296 575 265 560 q 349 615 326 590 l 349 568 l 443 568 m 449 392 l 449 472 l 74 472 l 74 392 l 449 392 m 350 714 q 320 654 350 678 q 246 631 290 631 q 194 646 214 631 q 174 690 174 661 q 197 738 174 721 q 263 754 221 754 q 311 750 290 754 q 350 739 332 746 l 350 714 z "},"º":{"ha":542,"x_min":61,"x_max":481,"o":"m 481 769 q 465 851 481 813 q 421 918 449 890 q 355 963 393 946 q 272 979 317 979 q 188 963 226 979 q 122 917 150 946 q 77 850 93 889 q 61 768 61 811 q 77 685 61 724 q 121 619 93 647 q 187 575 149 592 q 269 558 225 558 q 353 575 315 558 q 420 620 392 592 q 465 687 449 649 q 481 769 481 725 m 471 392 l 471 472 l 71 472 l 71 392 l 471 392 m 383 768 q 353 681 383 717 q 272 644 324 644 q 190 681 222 644 q 158 769 158 718 q 188 857 158 821 q 269 893 218 893 q 351 856 319 893 q 383 768 383 819 z "},"æ":{"ha":1322,"x_min":56,"x_max":1257,"o":"m 640 108 q 764 17 690 50 q 924 -17 838 -17 q 1099 21 1026 -17 q 1225 121 1172 58 l 1126 208 q 1035 143 1082 165 q 926 121 989 121 q 789 169 846 121 q 717 307 732 217 l 1256 307 q 1257 331 1257 319 q 1257 353 1257 342 q 1235 504 1257 432 q 1170 631 1214 576 q 1061 717 1126 685 q 910 749 996 749 q 763 715 828 749 q 653 624 697 682 q 555 713 619 682 q 394 744 490 744 q 244 728 307 744 q 119 683 181 711 l 165 549 q 264 582 215 569 q 375 594 313 594 q 509 554 463 594 q 556 438 556 514 l 556 419 q 466 442 513 433 q 353 450 419 450 q 234 435 289 450 q 140 392 179 421 q 78 318 100 363 q 56 215 56 274 q 76 117 56 160 q 133 44 96 74 q 220 0 169 15 q 333 -15 271 -15 q 502 21 426 -15 q 640 108 578 57 m 714 418 q 776 558 725 504 q 906 611 826 611 q 980 596 947 611 q 1036 555 1013 581 q 1074 494 1060 529 q 1092 418 1088 458 l 714 418 m 551 315 q 561 256 554 283 q 579 203 568 229 q 481 135 533 160 q 364 111 428 111 q 263 140 304 111 q 222 222 222 168 q 267 310 222 279 q 390 340 311 340 q 479 333 439 340 q 551 315 519 326 z "},"ø":{"ha":913,"x_min":44,"x_max":868,"o":"m 847 367 q 824 502 847 439 q 756 615 800 565 l 868 742 l 715 742 l 667 689 q 569 733 622 717 q 457 749 517 749 q 301 718 372 749 q 177 635 229 688 q 95 513 125 583 q 65 364 65 443 q 89 230 65 293 q 156 117 113 167 l 44 -7 l 197 -7 l 244 43 q 342 -1 289 15 q 454 -17 396 -17 q 611 14 539 -17 q 735 97 683 44 q 817 218 788 149 q 847 367 847 288 m 568 572 l 264 239 q 229 367 229 296 q 245 460 229 417 q 291 536 261 504 q 363 587 321 568 q 454 606 404 606 q 568 572 519 606 m 683 364 q 667 271 683 314 q 622 195 651 228 q 550 144 592 163 q 457 125 508 125 q 397 134 425 125 q 346 158 369 143 l 649 493 q 683 364 683 436 z "},"¿":{"ha":751,"x_min":58,"x_max":718,"o":"m 318 972 l 318 782 l 504 782 l 504 972 l 318 972 m 485 433 l 492 440 l 464 665 l 351 665 l 338 553 q 228 522 279 543 q 140 468 178 501 q 81 386 103 435 q 58 271 58 338 q 82 153 58 206 q 148 63 106 100 q 250 7 190 26 q 383 -12 310 -12 q 576 30 496 -12 q 718 142 657 72 l 614 253 q 509 172 564 200 q 388 143 454 143 q 270 180 313 143 q 228 276 228 217 q 290 388 228 347 q 485 433 351 428 z "},"¡":{"ha":419,"x_min":111,"x_max":308,"o":"m 118 972 l 118 782 l 303 782 l 303 972 l 118 972 m 308 0 l 308 49 l 257 665 l 164 665 l 111 49 l 111 0 l 308 0 z "},"√":{"ha":1442,"x_min":50,"x_max":1328,"o":"m 831 728 l 831 768 q 928 879 831 879 q 978 874 956 879 q 1026 861 1001 869 l 1026 1003 q 966 1017 999 1011 q 889 1022 933 1022 q 723 963 781 1022 q 665 782 665 904 l 665 729 l 572 729 l 572 589 l 665 589 l 665 0 l 833 0 l 833 589 l 1025 589 l 1025 728 l 831 728 m 308 728 l 308 768 q 406 879 308 879 q 456 874 433 879 q 504 861 479 869 l 504 1003 q 444 1017 476 1011 q 368 1022 413 1022 q 201 963 260 1022 q 143 782 143 904 l 143 729 l 50 729 l 50 589 l 143 589 l 143 0 l 311 0 l 311 589 l 503 589 l 503 728 l 308 728 m 1328 0 l 1328 1014 l 1158 1014 l 1158 0 l 1328 0 z "},"ƒ":{"ha":732,"x_min":57,"x_max":682,"o":"m 682 822 l 682 964 q 625 975 656 971 q 554 979 594 979 q 387 924 442 979 q 311 764 332 869 l 286 635 l 151 635 l 151 494 l 263 494 l 214 226 q 181 155 204 176 q 113 133 157 133 q 57 138 86 133 l 57 0 q 92 -6 74 -4 q 135 -7 110 -7 q 301 41 243 -7 q 379 201 360 89 l 432 494 l 633 494 l 633 635 l 457 635 l 474 729 q 511 811 485 786 q 586 836 538 836 q 633 833 608 836 q 682 822 657 829 z "},"≈":{"ha":1442,"x_min":50,"x_max":1333,"o":"m 1333 846 l 1333 1006 l 1153 1006 l 1153 846 l 1333 846 m 831 728 l 831 768 q 928 879 831 879 q 978 874 956 879 q 1026 861 1001 869 l 1026 1003 q 966 1017 999 1011 q 889 1022 933 1022 q 723 963 781 1022 q 665 782 665 904 l 665 729 l 572 729 l 572 589 l 665 589 l 665 0 l 833 0 l 833 589 l 1025 589 l 1025 728 l 831 728 m 308 728 l 308 768 q 406 879 308 879 q 456 874 433 879 q 504 861 479 869 l 504 1003 q 444 1017 476 1011 q 368 1022 413 1022 q 201 963 260 1022 q 143 782 143 904 l 143 729 l 50 729 l 50 589 l 143 589 l 143 0 l 311 0 l 311 589 l 503 589 l 503 728 l 308 728 m 1328 0 l 1328 733 l 1158 733 l 1158 0 l 1328 0 z "},"«":{"ha":842,"x_min":61,"x_max":768,"o":"m 640 678 l 411 372 l 411 361 l 640 57 l 768 122 l 585 368 l 768 613 l 640 678 m 292 678 l 61 372 l 61 361 l 292 57 l 419 122 l 236 368 l 419 613 l 292 678 z "},"»":{"ha":842,"x_min":74,"x_max":781,"o":"m 550 57 l 781 361 l 781 372 l 550 678 l 422 611 l 606 365 l 422 121 l 550 57 m 201 57 l 431 361 l 431 372 l 201 678 l 74 611 l 257 365 l 74 121 l 201 57 z "},"…":{"ha":1100,"x_min":94,"x_max":1006,"o":"m 1006 0 l 1006 186 l 825 186 l 825 0 l 1006 0 m 640 0 l 640 186 l 460 186 l 460 0 l 640 0 m 275 0 l 275 186 l 94 186 l 94 0 l 275 0 z "}," ":{"ha":417,"x_min":0,"x_max":0,"o":""},"À":{"ha":1097,"x_min":42,"x_max":1056,"o":"m 628 979 l 469 979 l 42 0 l 217 0 l 317 235 l 776 235 l 875 0 l 1056 0 l 628 979 m 714 386 l 379 386 l 546 775 l 714 386 m 488 1053 l 618 1053 l 471 1281 l 318 1213 l 488 1053 z "},"Ã":{"ha":1097,"x_min":42,"x_max":1056,"o":"m 628 979 l 469 979 l 42 0 l 217 0 l 317 235 l 776 235 l 875 0 l 1056 0 l 628 979 m 714 386 l 379 386 l 546 775 l 714 386 m 811 1225 l 718 1254 q 688 1201 703 1218 q 642 1185 672 1185 q 600 1193 622 1185 q 552 1212 578 1201 q 499 1231 526 1222 q 442 1240 471 1240 q 344 1196 378 1240 q 286 1067 310 1151 l 379 1039 q 410 1092 394 1075 q 456 1108 425 1108 q 497 1099 474 1108 q 545 1080 519 1090 q 599 1061 571 1069 q 656 1053 626 1053 q 753 1097 719 1053 q 811 1225 788 1142 z "},"Õ":{"ha":1181,"x_min":82,"x_max":1099,"o":"m 1099 488 q 1061 682 1099 590 q 957 842 1024 774 q 797 949 890 910 q 592 989 704 989 q 386 949 479 989 q 225 840 293 908 q 119 679 157 771 q 82 485 82 588 q 119 290 82 382 q 224 131 157 199 q 383 23 290 63 q 589 -17 476 -17 q 794 24 701 -17 q 956 133 888 64 q 1061 293 1024 201 q 1099 488 1099 385 m 919 485 q 895 351 919 414 q 828 241 871 288 q 724 167 785 194 q 592 140 664 140 q 458 168 519 140 q 353 243 397 196 q 285 353 310 290 q 261 488 261 417 q 285 622 261 558 q 353 731 310 685 q 456 805 396 778 q 589 832 517 832 q 722 804 661 832 q 827 729 783 776 q 895 619 871 682 q 919 485 919 556 m 853 1225 l 760 1254 q 729 1201 744 1218 q 683 1185 714 1185 q 642 1193 664 1185 q 594 1212 619 1201 q 540 1231 568 1222 q 483 1240 513 1240 q 385 1196 419 1240 q 328 1067 351 1151 l 421 1039 q 451 1092 436 1075 q 497 1108 467 1108 q 538 1099 515 1108 q 587 1080 561 1090 q 640 1061 613 1069 q 697 1053 668 1053 q 795 1097 761 1053 q 853 1225 829 1142 z "},"Œ":{"ha":1525,"x_min":82,"x_max":1447,"o":"m 1447 0 l 1447 153 l 921 153 l 921 414 l 1378 414 l 1378 567 l 921 567 l 921 819 l 1440 819 l 1440 972 l 599 972 q 389 935 483 972 q 226 831 294 897 q 119 676 157 765 q 82 485 82 588 q 119 293 82 382 q 226 139 157 204 q 389 37 294 74 q 599 0 483 0 l 1447 0 m 750 156 l 599 156 q 460 181 522 156 q 353 250 397 206 q 285 355 310 294 q 261 488 261 415 q 285 620 261 560 q 353 724 310 681 q 460 792 397 768 q 599 817 522 817 l 750 817 l 750 156 z "},"œ":{"ha":1444,"x_min":65,"x_max":1379,"o":"m 749 142 q 872 25 794 67 q 1047 -17 950 -17 q 1221 21 1147 -17 q 1347 121 1294 58 l 1249 208 q 1158 143 1204 165 q 1049 121 1111 121 q 910 169 968 121 q 838 307 853 217 l 1376 307 q 1378 331 1378 319 q 1379 353 1379 342 q 1357 504 1379 432 q 1291 631 1335 576 q 1183 717 1247 685 q 1032 749 1118 749 q 868 706 940 749 q 751 592 796 663 q 626 706 703 663 q 453 749 549 749 q 300 718 371 749 q 177 635 229 688 q 95 513 125 583 q 65 364 65 443 q 95 216 65 285 q 176 95 125 147 q 297 13 228 43 q 446 -17 367 -17 q 622 27 543 -17 q 749 142 700 71 m 836 418 q 898 558 847 504 q 1028 611 949 611 q 1102 596 1069 611 q 1158 555 1135 581 q 1195 494 1181 529 q 1214 418 1210 458 l 836 418 m 669 364 q 654 273 669 315 q 610 199 639 231 q 542 148 582 167 q 453 129 503 129 q 364 148 404 129 q 294 199 324 167 q 249 274 265 231 q 233 367 233 318 q 249 458 233 415 q 292 532 264 500 q 360 583 321 564 q 450 601 400 601 q 538 583 497 601 q 607 531 578 564 q 653 456 636 499 q 669 364 669 413 z "},"–":{"ha":733,"x_min":78,"x_max":656,"o":"m 656 346 l 656 506 l 78 506 l 78 346 l 656 346 z "},"—":{"ha":1247,"x_min":78,"x_max":1169,"o":"m 1169 346 l 1169 506 l 78 506 l 78 346 l 1169 346 z "},"“":{"ha":696,"x_min":88,"x_max":642,"o":"m 642 907 l 624 979 q 464 918 518 971 q 410 749 410 865 l 410 586 l 594 586 l 594 778 l 522 778 q 642 907 514 883 m 319 907 l 301 979 q 142 918 196 971 q 88 749 88 865 l 88 586 l 272 586 l 272 778 l 201 778 q 319 907 192 883 z "},"”":{"ha":696,"x_min":54,"x_max":608,"o":"m 376 651 l 394 579 q 554 640 500 588 q 608 810 608 693 l 608 972 l 424 972 l 424 782 l 494 782 q 376 651 504 675 m 54 651 l 72 579 q 232 640 178 588 q 286 810 286 693 l 286 972 l 101 972 l 101 782 l 172 782 q 54 651 182 675 z "},"‘":{"ha":374,"x_min":88,"x_max":319,"o":"m 319 907 l 301 979 q 142 918 196 971 q 88 749 88 865 l 88 586 l 272 586 l 272 778 l 201 778 q 319 907 192 883 z "},"’":{"ha":374,"x_min":54,"x_max":286,"o":"m 54 651 l 72 579 q 232 640 178 588 q 286 810 286 693 l 286 972 l 101 972 l 101 782 l 172 782 q 54 651 182 675 z "},"ÿ":{"ha":828,"x_min":36,"x_max":789,"o":"m 789 733 l 614 733 l 424 189 l 215 733 l 36 733 l 342 0 q 297 -67 321 -49 q 238 -85 274 -85 q 187 -77 211 -85 q 139 -57 163 -69 l 82 -182 q 162 -215 121 -203 q 256 -226 203 -226 q 335 -215 300 -226 q 399 -180 369 -204 q 451 -117 428 -156 q 497 -21 475 -78 l 789 733 m 638 826 l 638 990 l 467 990 l 467 826 l 638 826 m 361 826 l 361 990 l 190 990 l 190 826 l 361 826 z "},"Ÿ":{"ha":994,"x_min":25,"x_max":969,"o":"m 583 388 l 969 972 l 774 972 l 499 542 l 226 972 l 25 972 l 411 383 l 411 0 l 583 0 l 583 388 m 721 1051 l 721 1215 l 550 1215 l 550 1051 l 721 1051 m 444 1051 l 444 1215 l 274 1215 l 274 1051 l 444 1051 z "},"¤":{"ha":1000,"x_min":72,"x_max":939,"o":"m 181 549 q 178 517 178 533 q 178 485 178 500 q 178 457 178 471 q 179 431 178 444 l 72 431 l 72 313 l 199 313 q 255 178 218 239 q 343 74 292 118 q 460 7 394 31 q 603 -17 525 -17 q 711 -2 663 -17 q 801 38 760 13 q 876 100 842 64 q 939 179 910 136 l 817 268 q 769 212 793 236 q 721 171 746 188 q 667 145 696 154 q 604 136 639 136 q 464 183 522 136 q 378 313 406 231 l 678 313 l 678 431 l 353 431 q 351 459 351 446 q 350 488 350 472 q 351 518 350 503 q 353 549 351 533 l 678 549 l 678 667 l 381 667 q 463 791 408 746 q 593 836 518 836 q 714 803 665 836 q 807 710 763 771 l 936 806 q 876 878 908 844 q 803 937 843 913 q 712 975 763 961 q 597 989 661 989 q 460 965 524 989 q 347 898 397 940 q 260 797 297 856 q 203 667 224 738 l 72 667 l 72 549 l 181 549 z "},"‹":{"ha":492,"x_min":61,"x_max":419,"o":"m 292 678 l 61 372 l 61 361 l 292 57 l 419 122 l 236 368 l 419 613 l 292 678 z "},"›":{"ha":492,"x_min":74,"x_max":431,"o":"m 201 57 l 431 361 l 431 372 l 201 678 l 74 611 l 257 365 l 74 121 l 201 57 z "},"ﬁ":{"ha":919,"x_min":50,"x_max":811,"o":"m 811 846 l 811 1006 l 631 1006 l 631 846 l 811 846 m 308 728 l 308 768 q 406 879 308 879 q 456 874 433 879 q 504 861 479 869 l 504 1003 q 444 1017 476 1011 q 368 1022 413 1022 q 201 963 260 1022 q 143 782 143 904 l 143 729 l 50 729 l 50 589 l 143 589 l 143 0 l 311 0 l 311 589 l 503 589 l 503 728 l 308 728 m 806 0 l 806 733 l 638 733 l 638 0 l 806 0 z "},"ﬂ":{"ha":919,"x_min":50,"x_max":806,"o":"m 308 728 l 308 768 q 406 879 308 879 q 456 874 433 879 q 504 861 479 869 l 504 1003 q 444 1017 476 1011 q 368 1022 413 1022 q 201 963 260 1022 q 143 782 143 904 l 143 729 l 50 729 l 50 589 l 143 589 l 143 0 l 311 0 l 311 589 l 503 589 l 503 728 l 308 728 m 806 0 l 806 1014 l 638 1014 l 638 0 l 806 0 z "},"‡":{"ha":597,"x_min":92,"x_max":506,"o":"m 506 174 l 506 272 l 338 260 l 349 486 l 338 713 l 506 700 l 506 799 l 338 786 l 354 972 l 243 972 l 260 786 l 92 799 l 92 700 l 260 713 l 249 486 l 260 260 l 92 272 l 92 174 l 260 186 l 243 0 l 354 0 l 338 186 l 506 174 z "},"·":{"ha":374,"x_min":94,"x_max":279,"o":"m 279 331 l 279 521 l 94 521 l 94 331 l 279 331 z "},"‚":{"ha":374,"x_min":47,"x_max":279,"o":"m 47 -131 l 65 -201 q 225 -140 171 -193 q 279 29 279 -87 l 279 190 l 94 190 l 94 0 l 165 0 q 47 -131 175 -106 z "},"„":{"ha":696,"x_min":47,"x_max":601,"o":"m 369 -131 l 388 -201 q 547 -140 493 -193 q 601 29 601 -87 l 601 190 l 417 190 l 417 0 l 488 0 q 369 -131 497 -106 m 47 -131 l 65 -201 q 225 -140 171 -193 q 279 29 279 -87 l 279 190 l 94 190 l 94 0 l 165 0 q 47 -131 175 -106 z "},"‰":{"ha":1706,"x_min":67,"x_max":1639,"o":"m 525 736 q 508 831 525 786 q 462 910 492 876 q 390 964 432 944 q 297 983 349 983 q 203 963 246 983 q 131 909 161 943 q 83 830 100 875 q 67 733 67 785 q 83 638 67 683 q 130 559 100 593 q 201 506 160 525 q 294 486 243 486 q 388 506 346 486 q 461 560 431 526 q 508 640 492 594 q 525 736 525 685 m 876 972 l 165 0 l 303 0 l 1014 972 l 876 972 m 1639 239 q 1622 334 1639 289 q 1576 413 1606 379 q 1504 467 1546 447 q 1411 486 1463 486 q 1316 466 1358 486 q 1244 412 1274 446 q 1197 333 1214 378 q 1181 236 1181 288 q 1197 141 1181 186 q 1242 62 1213 96 q 1315 8 1272 28 q 1408 -11 1357 -11 q 1502 9 1460 -11 q 1575 63 1544 29 q 1622 142 1606 97 q 1639 239 1639 188 m 1113 239 q 1096 334 1113 289 q 1049 413 1079 379 q 978 467 1019 447 q 885 486 936 486 q 791 466 833 486 q 718 412 749 446 q 671 333 688 378 q 654 236 654 288 q 671 141 654 186 q 717 62 688 96 q 789 8 747 28 q 882 -11 831 -11 q 976 9 933 -11 q 1049 63 1018 29 q 1096 142 1079 97 q 1113 239 1113 188 m 401 733 q 374 634 401 675 q 297 593 346 593 q 220 634 250 593 q 190 736 190 675 q 218 835 190 794 q 294 876 246 876 q 372 835 342 876 q 401 733 401 794 m 1515 236 q 1488 137 1515 178 q 1411 96 1460 96 q 1334 137 1364 96 q 1304 239 1304 178 q 1332 338 1304 297 q 1408 379 1360 379 q 1485 338 1456 379 q 1515 236 1515 297 m 989 236 q 961 137 989 178 q 885 96 933 96 q 808 137 838 96 q 778 239 778 178 q 806 338 778 297 q 882 379 833 379 q 959 338 929 379 q 989 236 989 297 z "},"Â":{"ha":1097,"x_min":42,"x_max":1056,"o":"m 628 979 l 469 979 l 42 0 l 217 0 l 317 235 l 776 235 l 875 0 l 1056 0 l 628 979 m 714 386 l 379 386 l 546 775 l 714 386 m 547 1144 l 654 1051 l 788 1051 l 626 1254 l 471 1254 l 310 1051 l 440 1051 l 547 1144 z "},"Ê":{"ha":931,"x_min":125,"x_max":853,"o":"m 846 972 l 125 972 l 125 0 l 853 0 l 853 153 l 296 153 l 296 414 l 783 414 l 783 567 l 296 567 l 296 819 l 846 819 l 846 972 m 481 1146 l 588 1053 l 721 1053 l 560 1256 l 404 1256 l 243 1053 l 374 1053 l 481 1146 z "},"Á":{"ha":1097,"x_min":42,"x_max":1056,"o":"m 628 979 l 469 979 l 42 0 l 217 0 l 317 235 l 776 235 l 875 0 l 1056 0 l 628 979 m 714 386 l 379 386 l 546 775 l 714 386 m 610 1053 l 779 1213 l 626 1281 l 479 1053 l 610 1053 z "},"Ë":{"ha":931,"x_min":125,"x_max":853,"o":"m 846 972 l 125 972 l 125 0 l 853 0 l 853 153 l 296 153 l 296 414 l 783 414 l 783 567 l 296 567 l 296 819 l 846 819 l 846 972 m 706 1053 l 706 1217 l 535 1217 l 535 1053 l 706 1053 m 429 1053 l 429 1217 l 258 1217 l 258 1053 l 429 1053 z "},"È":{"ha":931,"x_min":125,"x_max":853,"o":"m 846 972 l 125 972 l 125 0 l 853 0 l 853 153 l 296 153 l 296 414 l 783 414 l 783 567 l 296 567 l 296 819 l 846 819 l 846 972 m 454 1053 l 585 1053 l 438 1281 l 285 1213 l 454 1053 z "},"Í":{"ha":440,"x_min":135,"x_max":451,"o":"m 135 972 l 135 0 l 306 0 l 306 972 l 135 972 m 282 1053 l 451 1213 l 299 1281 l 151 1053 l 282 1053 z "},"Î":{"ha":440,"x_min":135,"x_max":613,"o":"m 135 972 l 135 0 l 306 0 l 306 972 l 135 972 m 372 1146 l 479 1053 l 613 1053 l 451 1256 l 296 1256 l 135 1053 l 265 1053 l 372 1146 z "},"Ï":{"ha":440,"x_min":135,"x_max":582,"o":"m 135 972 l 135 0 l 306 0 l 306 972 l 135 972 m 582 1053 l 582 1217 l 411 1217 l 411 1053 l 582 1053 m 306 1053 l 306 1217 l 135 1217 l 135 1053 l 306 1053 z "},"Ì":{"ha":440,"x_min":135,"x_max":436,"o":"m 135 972 l 135 0 l 306 0 l 306 972 l 135 972 m 306 1053 l 436 1053 l 289 1281 l 136 1213 l 306 1053 z "},"Ó":{"ha":1181,"x_min":82,"x_max":1099,"o":"m 1099 488 q 1061 682 1099 590 q 957 842 1024 774 q 797 949 890 910 q 592 989 704 989 q 386 949 479 989 q 225 840 293 908 q 119 679 157 771 q 82 485 82 588 q 119 290 82 382 q 224 131 157 199 q 383 23 290 63 q 589 -17 476 -17 q 794 24 701 -17 q 956 133 888 64 q 1061 293 1024 201 q 1099 488 1099 385 m 919 485 q 895 351 919 414 q 828 241 871 288 q 724 167 785 194 q 592 140 664 140 q 458 168 519 140 q 353 243 397 196 q 285 353 310 290 q 261 488 261 417 q 285 622 261 558 q 353 731 310 685 q 456 805 396 778 q 589 832 517 832 q 722 804 661 832 q 827 729 783 776 q 895 619 871 682 q 919 485 919 556 m 661 1053 l 831 1213 l 678 1281 l 531 1053 l 661 1053 z "},"Ô":{"ha":1181,"x_min":82,"x_max":1099,"o":"m 1099 488 q 1061 682 1099 590 q 957 842 1024 774 q 797 949 890 910 q 592 989 704 989 q 386 949 479 989 q 225 840 293 908 q 119 679 157 771 q 82 485 82 588 q 119 290 82 382 q 224 131 157 199 q 383 23 290 63 q 589 -17 476 -17 q 794 24 701 -17 q 956 133 888 64 q 1061 293 1024 201 q 1099 488 1099 385 m 919 485 q 895 351 919 414 q 828 241 871 288 q 724 167 785 194 q 592 140 664 140 q 458 168 519 140 q 353 243 397 196 q 285 353 310 290 q 261 488 261 417 q 285 622 261 558 q 353 731 310 685 q 456 805 396 778 q 589 832 517 832 q 722 804 661 832 q 827 729 783 776 q 895 619 871 682 q 919 485 919 556 m 589 1146 l 696 1053 l 829 1053 l 668 1256 l 513 1256 l 351 1053 l 482 1053 l 589 1146 z "},"":{"ha":1343,"x_min":140,"x_max":1206,"o":"m 1206 0 l 1206 1042 l 140 1042 l 140 0 l 1206 0 m 1193 -144 l 1185 -97 l 1183 -97 l 1165 -133 l 1147 -97 l 1146 -97 l 1138 -144 l 1146 -144 l 1150 -117 l 1164 -146 l 1167 -146 l 1181 -117 l 1185 -144 l 1193 -144 m 1119 -121 q 1113 -104 1119 -111 q 1097 -97 1107 -97 q 1079 -104 1086 -97 q 1072 -122 1072 -111 q 1078 -139 1072 -132 q 1096 -146 1085 -146 q 1113 -139 1107 -146 q 1119 -121 1119 -132 m 1053 -133 q 1039 -139 1044 -139 q 1021 -121 1021 -139 q 1026 -109 1021 -114 q 1038 -104 1031 -104 q 1050 -108 1046 -104 l 1053 -101 q 1038 -97 1046 -97 q 1019 -104 1026 -97 q 1013 -122 1013 -111 q 1038 -146 1013 -146 q 1051 -142 1047 -146 l 1053 -133 m 975 -99 l 965 -99 l 953 -118 l 938 -97 l 929 -99 l 949 -125 l 949 -144 l 957 -144 l 957 -125 l 975 -99 m 911 -144 l 911 -99 l 903 -99 l 903 -117 l 881 -117 l 881 -99 l 872 -99 l 872 -144 l 881 -144 l 881 -124 l 903 -124 l 903 -144 l 911 -144 m 850 -114 q 844 -101 850 -107 q 818 -99 838 -96 l 818 -144 l 826 -144 l 826 -131 q 850 -114 850 -131 m 800 -144 l 778 -97 l 775 -97 l 754 -144 l 763 -144 l 767 -133 l 786 -133 l 792 -144 l 800 -144 m 742 -144 l 728 -126 q 738 -112 738 -122 q 731 -101 738 -106 q 706 -99 725 -96 l 706 -144 l 714 -144 l 714 -129 l 721 -129 l 732 -144 l 742 -144 m 682 -140 l 682 -119 l 661 -119 l 661 -126 l 674 -126 l 674 -136 q 665 -139 668 -139 q 647 -122 647 -139 q 664 -104 647 -104 q 679 -110 674 -104 l 682 -103 q 665 -97 674 -97 q 647 -104 654 -97 q 639 -122 639 -111 q 646 -140 639 -133 q 664 -146 653 -146 q 682 -140 674 -146 m 621 -121 q 615 -104 621 -111 q 599 -97 608 -97 q 581 -104 588 -97 q 574 -122 574 -111 q 580 -139 574 -132 q 597 -146 586 -146 q 615 -139 608 -146 q 621 -121 621 -132 m 556 -114 q 549 -101 556 -107 q 524 -99 543 -96 l 524 -144 l 532 -144 l 532 -131 q 556 -114 556 -131 m 506 -99 l 496 -99 l 483 -118 l 468 -97 l 460 -99 l 479 -125 l 479 -144 l 488 -144 l 488 -125 l 506 -99 m 449 -99 l 407 -99 l 407 -106 l 424 -106 l 424 -144 l 432 -144 l 432 -106 l 449 -106 l 449 -99 m 371 -99 l 363 -99 l 353 -129 l 339 -97 l 338 -97 l 324 -129 l 314 -97 l 306 -99 l 322 -146 l 324 -146 l 338 -114 l 353 -146 l 354 -146 l 371 -99 m 293 -99 l 285 -99 l 275 -129 l 261 -97 l 260 -97 l 246 -129 l 236 -97 l 228 -99 l 244 -146 l 246 -146 l 260 -114 l 275 -146 l 276 -146 l 293 -99 m 215 -99 l 207 -99 l 197 -129 l 183 -97 l 182 -97 l 168 -129 l 158 -97 l 150 -99 l 167 -146 l 168 -146 l 182 -114 l 197 -146 l 199 -146 l 215 -99 m 994 -140 q 989 -135 994 -135 q 983 -140 983 -135 q 989 -146 983 -146 q 994 -140 994 -146 m 394 -140 q 389 -135 394 -135 q 383 -140 383 -135 q 389 -146 383 -146 q 394 -140 394 -146 m 776 953 l 774 953 q 770 959 774 953 q 760 965 767 965 q 756 961 756 965 l 756 929 q 758 922 756 922 q 763 922 763 922 l 763 919 l 739 919 l 739 922 q 742 922 739 922 q 746 929 746 922 l 746 961 q 742 965 746 965 q 731 959 735 965 q 728 953 728 953 l 725 953 q 726 959 725 953 q 726 969 726 965 q 751 968 731 968 q 775 969 772 968 q 776 958 776 965 q 776 953 776 953 m 700 919 l 675 919 l 675 922 q 678 922 675 922 q 682 929 682 922 l 682 943 l 658 943 l 658 929 q 662 923 658 924 q 665 922 665 922 l 665 919 l 642 919 l 642 922 q 645 923 642 922 q 649 929 649 924 l 649 958 q 644 965 649 965 q 642 965 642 965 l 642 968 l 665 968 l 665 967 l 665 965 q 661 965 665 965 q 658 958 658 965 l 658 946 l 682 946 l 682 958 q 678 965 682 965 q 675 965 675 965 l 675 967 l 675 968 l 700 968 l 700 965 q 696 965 700 965 q 692 958 692 965 l 692 929 q 696 922 692 922 q 700 922 700 922 l 700 919 m 610 922 l 610 919 l 568 919 l 565 935 l 568 936 q 572 930 568 936 q 582 924 575 924 l 588 924 q 593 928 593 924 l 593 943 l 588 943 q 580 939 581 943 q 579 935 579 935 l 576 935 l 576 953 l 579 953 q 580 949 579 953 q 588 946 581 946 l 593 946 l 593 960 q 588 964 593 964 l 582 964 q 572 958 575 964 q 569 953 569 953 l 567 954 l 569 968 l 610 968 l 610 965 q 606 965 610 965 q 603 958 603 965 l 603 929 q 606 922 603 922 q 610 922 610 922 m 1149 858 l 197 858 l 197 867 l 1149 867 l 1149 858 m 967 750 q 956 726 967 733 q 935 719 944 719 q 899 735 915 719 q 883 772 883 750 q 894 796 883 789 q 915 803 906 803 q 951 787 935 803 q 967 750 967 771 m 818 746 q 810 727 818 735 q 783 719 801 719 q 761 738 761 719 q 774 751 761 751 q 783 744 783 751 q 778 738 783 738 q 774 739 775 738 q 771 740 772 740 q 767 736 767 740 q 783 724 767 724 q 800 743 800 724 q 792 764 800 757 q 776 757 785 757 q 765 765 765 757 q 788 774 765 776 q 790 782 790 776 q 776 799 790 799 q 767 792 767 799 q 769 788 767 789 q 771 783 771 788 q 765 779 771 779 q 758 788 758 779 q 776 803 758 803 q 799 796 792 803 q 806 782 806 789 q 799 769 806 774 q 818 746 818 763 m 410 746 q 401 727 410 735 q 375 719 393 719 q 353 738 353 719 q 365 751 353 751 q 375 744 375 751 q 369 738 375 738 q 365 739 367 738 q 363 740 364 740 q 358 736 358 740 q 375 724 358 724 q 392 743 392 724 q 383 764 392 757 q 368 757 376 757 q 357 765 357 757 q 379 774 357 776 q 382 782 382 776 q 368 799 382 799 q 358 792 358 799 q 360 788 358 789 q 363 783 363 788 q 357 779 363 779 q 350 788 350 779 q 368 803 350 803 q 390 796 383 803 q 397 782 397 789 q 390 769 397 774 q 410 746 410 763 m 1139 725 l 1140 721 l 1100 721 l 1099 725 q 1105 726 1099 725 q 1108 736 1111 726 l 1104 758 l 1071 758 l 1075 736 q 1083 726 1078 726 q 1089 725 1089 725 l 1090 721 l 1050 721 l 1049 725 q 1055 726 1049 725 q 1058 736 1061 726 l 1049 785 q 1040 795 1046 794 q 1035 796 1035 796 l 1033 800 l 1074 800 l 1075 796 q 1069 795 1075 796 q 1065 785 1063 794 l 1069 764 l 1103 764 l 1099 785 q 1091 795 1096 794 q 1086 796 1086 796 l 1085 800 l 1124 800 l 1125 796 q 1119 795 1125 796 q 1115 785 1113 794 l 1125 736 q 1133 726 1128 726 q 1139 725 1139 725 m 692 721 l 651 721 l 650 725 q 656 726 650 725 q 660 736 663 726 l 656 760 l 650 760 q 640 752 640 760 q 639 744 639 744 l 635 744 l 628 776 l 632 776 q 635 770 632 776 q 649 764 639 764 l 654 764 l 650 786 q 642 794 649 794 l 636 794 q 619 785 621 794 q 618 776 618 776 l 613 776 q 613 786 613 776 q 613 800 614 796 l 675 800 l 676 796 q 670 795 676 796 q 667 785 664 794 l 676 736 q 685 726 679 726 q 690 725 690 725 l 692 721 m 281 725 l 282 721 l 242 721 l 240 725 q 247 726 240 725 q 250 736 253 726 l 246 757 q 239 753 240 757 l 222 721 l 196 721 l 194 725 q 201 726 194 725 q 214 736 208 726 l 226 758 q 208 765 215 760 q 200 779 200 771 q 228 800 200 800 l 265 800 l 267 796 q 260 795 267 796 q 257 785 254 794 l 267 736 q 275 726 269 726 q 281 725 281 725 m 556 724 q 550 719 556 719 q 533 729 538 719 q 519 720 522 729 q 499 711 517 711 q 485 716 492 711 q 478 728 478 721 q 485 738 478 738 q 492 731 492 738 q 490 727 492 728 q 489 724 489 726 q 496 718 489 718 q 508 727 503 718 q 528 736 513 736 q 516 755 519 744 q 511 775 513 765 q 508 792 510 785 q 499 799 506 799 q 492 790 492 799 q 486 782 492 782 q 479 789 479 782 q 485 798 479 793 q 497 803 490 803 q 520 794 514 803 q 528 773 526 785 q 531 751 531 761 q 538 736 532 740 q 551 731 547 735 q 556 724 556 726 m 1149 660 l 197 660 l 197 668 l 1149 668 l 1149 660 m 1149 525 l 1099 525 l 1099 564 l 1083 564 l 1083 474 l 1103 474 l 1103 428 l 990 428 l 990 474 l 1010 474 l 1010 564 l 994 564 l 994 525 l 944 525 l 944 611 l 1149 611 l 1149 525 m 900 564 l 881 564 l 829 501 l 829 474 l 850 474 l 850 428 l 738 428 l 738 474 l 757 474 l 757 500 l 706 564 l 689 564 l 689 611 l 775 611 l 775 564 l 761 564 l 782 532 l 803 564 l 788 564 l 788 611 l 900 611 l 900 564 m 636 428 l 524 428 l 524 474 l 544 474 l 544 500 l 503 500 q 455 516 472 500 q 438 556 438 532 q 455 595 438 579 q 503 611 472 611 l 636 611 l 636 564 l 617 564 l 617 474 l 636 474 l 636 428 m 393 428 l 197 428 l 197 513 l 254 513 l 254 474 l 300 474 l 300 503 l 267 503 l 267 536 l 300 536 l 300 564 l 254 564 l 254 525 l 197 525 l 197 611 l 393 611 l 393 564 l 374 564 l 374 474 l 393 474 l 393 428 m 1149 376 l 197 376 l 197 385 l 1149 385 l 1149 376 m 1011 267 q 1000 243 1011 250 q 979 236 989 236 q 944 251 960 236 q 928 289 928 267 q 939 313 928 306 q 960 319 950 319 q 995 303 979 319 q 1011 267 1011 288 m 282 301 l 279 299 q 273 305 276 301 q 263 308 269 308 q 250 290 250 308 q 257 256 250 279 q 265 244 260 244 q 271 243 271 243 l 272 238 l 233 238 l 232 243 q 238 244 232 243 q 240 264 244 246 q 228 295 236 281 q 207 310 221 310 q 196 301 196 310 l 192 303 q 197 315 192 311 q 208 319 201 319 q 226 310 219 319 q 238 288 233 301 q 257 319 236 319 q 273 314 268 319 q 282 301 278 308 m 1143 238 l 1103 238 l 1101 242 q 1108 242 1101 242 q 1111 253 1114 243 l 1107 276 l 1101 276 q 1091 269 1092 276 q 1090 261 1090 261 l 1086 261 l 1079 293 l 1083 293 q 1087 287 1083 293 q 1100 281 1090 281 l 1106 281 l 1101 303 q 1093 311 1100 311 l 1088 311 q 1071 302 1072 311 q 1069 293 1069 293 l 1064 293 q 1065 303 1064 293 q 1064 317 1065 313 l 1126 317 l 1128 313 q 1122 312 1128 313 q 1118 301 1115 311 l 1128 253 q 1136 242 1131 243 q 1142 242 1142 242 l 1143 238 m 863 313 q 856 312 863 313 q 851 300 849 311 l 858 269 q 858 247 861 258 q 832 236 856 236 q 804 249 813 236 q 793 274 796 263 l 788 300 q 778 312 785 311 q 772 313 772 313 l 771 317 l 804 317 l 804 313 q 798 312 804 313 q 794 300 792 311 l 800 274 q 810 252 803 261 q 828 243 817 243 q 844 250 843 243 q 843 271 846 257 l 836 300 q 828 312 833 311 q 822 313 822 313 l 821 317 l 861 317 l 863 313 m 725 242 l 726 238 l 697 238 l 696 242 q 701 243 696 242 q 704 256 707 244 l 696 297 l 654 236 l 650 238 l 639 300 q 631 311 636 310 q 626 313 626 313 l 625 317 l 654 317 l 656 313 q 649 311 656 313 q 646 300 643 310 l 653 258 l 693 317 l 713 317 l 714 313 q 707 312 714 313 q 703 300 700 311 l 713 256 q 720 243 715 244 q 725 242 725 242 m 575 238 l 531 238 q 497 251 513 238 q 482 286 482 264 q 493 309 482 301 q 517 317 504 317 l 558 317 l 560 313 q 549 299 544 311 l 560 256 q 568 244 563 244 q 574 243 574 243 l 575 238 m 425 242 l 426 238 l 386 238 l 385 242 q 391 242 385 242 q 394 253 397 243 l 390 274 q 383 269 385 274 l 367 238 l 340 238 l 339 242 q 346 242 339 242 q 358 253 353 243 l 371 275 q 352 282 360 276 q 344 296 344 288 q 372 317 344 317 l 410 317 l 411 313 q 405 312 411 313 q 401 301 399 311 l 411 253 q 419 242 414 243 q 425 242 425 242 m 1149 176 l 197 176 l 197 185 l 1149 185 l 1149 176 m 964 64 l 944 64 l 944 67 q 948 68 944 67 q 951 74 951 69 l 951 101 l 917 63 l 913 63 l 913 101 q 908 108 913 107 q 904 110 904 110 l 904 113 l 925 113 l 925 110 q 921 108 925 110 q 917 101 917 107 l 917 76 l 950 113 l 964 113 l 964 110 q 960 107 964 110 q 956 101 956 104 l 956 74 q 960 68 956 69 q 964 67 964 67 l 964 64 m 879 67 l 879 64 l 838 64 l 835 79 l 838 81 q 841 74 838 81 q 851 68 844 68 l 857 68 q 863 72 863 68 l 863 88 l 857 88 q 849 83 850 88 q 849 79 849 79 l 846 79 l 846 97 l 849 97 q 849 94 849 97 q 857 90 850 90 l 863 90 l 863 104 q 857 108 863 108 l 851 108 q 842 103 844 108 q 839 97 839 97 l 836 99 l 839 113 l 879 113 l 879 110 q 875 110 879 110 q 872 103 872 110 l 872 74 q 875 67 872 67 q 879 67 879 67 m 810 113 l 810 110 q 806 109 810 110 q 800 101 803 108 l 783 64 l 782 64 l 769 86 l 758 64 q 758 63 758 63 q 757 64 757 64 l 756 64 l 738 101 q 732 108 735 107 q 729 110 729 110 l 729 113 l 747 113 l 747 110 q 744 108 747 110 q 744 101 742 107 l 756 76 l 765 94 l 761 101 q 754 109 757 108 q 751 110 751 110 l 750 113 l 786 113 l 786 110 q 783 108 786 110 q 778 101 781 106 l 772 90 l 779 76 l 792 103 q 792 108 794 107 q 789 110 789 110 l 789 113 l 810 113 m 667 110 q 663 109 667 110 q 657 103 660 108 l 646 86 l 646 75 q 649 67 646 68 q 653 67 653 67 l 653 64 l 629 64 l 629 67 q 633 67 629 67 q 636 75 636 68 l 636 86 l 625 103 q 618 109 622 108 q 614 110 614 110 l 614 113 l 635 113 l 635 110 q 631 109 635 110 q 631 103 628 108 l 639 90 l 647 103 q 648 109 650 108 q 646 110 646 110 l 646 113 l 667 113 l 667 110 m 590 89 q 583 70 590 78 q 563 63 576 63 q 542 70 549 63 q 535 89 535 78 q 542 107 535 100 q 563 114 549 114 q 583 107 576 114 q 590 89 590 100 m 506 64 l 482 64 l 482 67 q 485 67 482 67 q 489 74 489 68 l 489 86 q 479 81 483 86 l 469 64 l 454 64 l 454 67 q 458 67 454 67 q 465 74 461 68 l 475 88 q 463 100 463 93 q 481 113 463 113 l 506 113 l 506 110 q 502 109 506 110 q 499 101 499 108 l 499 74 q 502 67 499 68 q 506 67 506 67 l 506 64 m 429 64 l 404 64 l 404 67 q 408 67 404 67 q 413 75 413 68 l 413 88 q 407 85 410 88 l 396 74 q 395 67 392 68 q 399 67 399 67 l 399 64 l 375 64 l 375 67 q 378 69 375 67 q 385 74 382 71 l 403 92 l 389 104 q 382 108 386 107 q 378 110 378 110 l 378 113 l 397 113 l 397 110 q 395 108 397 110 q 396 104 393 107 l 407 93 q 413 90 410 90 l 413 103 q 408 109 413 108 q 404 110 404 110 l 404 113 l 429 113 l 429 110 q 425 109 429 110 q 421 103 421 108 l 421 75 q 425 68 421 69 q 429 67 429 67 l 429 64 m 842 -115 q 826 -124 842 -124 l 826 -106 q 842 -115 842 -104 m 729 -114 q 714 -122 729 -124 l 714 -106 q 729 -114 729 -103 m 547 -115 q 532 -124 547 -124 l 532 -106 q 547 -115 547 -104 m 783 -128 l 769 -128 l 776 -111 l 783 -128 m 1111 -122 q 1096 -139 1111 -139 q 1081 -121 1081 -139 q 1096 -104 1081 -104 q 1111 -122 1111 -104 m 613 -122 q 597 -139 613 -139 q 582 -121 582 -139 q 597 -104 582 -104 q 613 -122 613 -104 m 244 761 l 240 788 q 228 794 239 794 q 217 782 217 794 q 222 768 217 775 q 238 761 226 761 l 244 761 m 786 768 q 776 769 783 769 q 771 765 771 769 q 776 763 771 763 q 786 768 782 763 m 378 768 q 368 769 375 769 q 363 765 363 769 q 368 763 363 763 q 378 768 374 763 m 950 743 q 939 781 950 765 q 915 797 928 797 q 900 778 900 797 q 911 741 900 757 q 935 725 922 725 q 950 743 950 725 m 544 533 l 544 564 l 529 564 q 511 549 511 564 q 529 533 511 533 l 544 533 m 389 278 l 385 304 q 372 311 383 311 q 361 299 361 311 q 366 285 361 292 q 382 278 371 278 l 389 278 m 994 260 q 983 298 994 282 q 960 314 972 314 q 944 294 944 314 q 956 258 944 274 q 979 242 967 242 q 994 260 994 242 m 546 253 l 533 301 q 530 309 531 308 q 525 311 529 310 l 517 311 q 497 288 497 311 q 508 257 497 271 q 533 243 518 243 l 540 243 q 546 253 546 243 m 768 110 q 768 97 761 110 q 768 110 774 110 m 489 89 l 489 103 q 483 108 489 108 q 474 100 474 108 q 485 89 474 89 l 489 89 m 579 89 q 563 111 579 111 q 546 89 546 111 q 550 72 546 79 q 563 65 554 65 q 576 72 572 65 q 579 89 579 79 z "},"Ò":{"ha":1181,"x_min":82,"x_max":1099,"o":"m 1099 488 q 1061 682 1099 590 q 957 842 1024 774 q 797 949 890 910 q 592 989 704 989 q 386 949 479 989 q 225 840 293 908 q 119 679 157 771 q 82 485 82 588 q 119 290 82 382 q 224 131 157 199 q 383 23 290 63 q 589 -17 476 -17 q 794 24 701 -17 q 956 133 888 64 q 1061 293 1024 201 q 1099 488 1099 385 m 919 485 q 895 351 919 414 q 828 241 871 288 q 724 167 785 194 q 592 140 664 140 q 458 168 519 140 q 353 243 397 196 q 285 353 310 290 q 261 488 261 417 q 285 622 261 558 q 353 731 310 685 q 456 805 396 778 q 589 832 517 832 q 722 804 661 832 q 827 729 783 776 q 895 619 871 682 q 919 485 919 556 m 519 1053 l 650 1053 l 503 1281 l 350 1213 l 519 1053 z "},"Ú":{"ha":1051,"x_min":110,"x_max":942,"o":"m 942 972 l 771 972 l 771 413 q 706 210 771 278 q 526 142 640 142 q 346 213 411 142 q 281 419 281 283 l 281 972 l 110 972 l 110 413 q 139 227 110 307 q 222 93 168 147 q 353 12 276 39 q 524 -15 429 -15 q 697 12 619 -15 q 828 94 774 39 q 912 231 882 149 q 942 421 942 313 l 942 972 m 578 1046 l 747 1206 l 594 1274 l 447 1046 l 578 1046 z "},"Û":{"ha":1051,"x_min":110,"x_max":942,"o":"m 942 972 l 771 972 l 771 413 q 706 210 771 278 q 526 142 640 142 q 346 213 411 142 q 281 419 281 283 l 281 972 l 110 972 l 110 413 q 139 227 110 307 q 222 93 168 147 q 353 12 276 39 q 524 -15 429 -15 q 697 12 619 -15 q 828 94 774 39 q 912 231 882 149 q 942 421 942 313 l 942 972 m 525 1144 l 632 1051 l 765 1051 l 604 1254 l 449 1254 l 288 1051 l 418 1051 l 525 1144 z "},"Ù":{"ha":1051,"x_min":110,"x_max":942,"o":"m 942 972 l 771 972 l 771 413 q 706 210 771 278 q 526 142 640 142 q 346 213 411 142 q 281 419 281 283 l 281 972 l 110 972 l 110 413 q 139 227 110 307 q 222 93 168 147 q 353 12 276 39 q 524 -15 429 -15 q 697 12 619 -15 q 828 94 774 39 q 912 231 882 149 q 942 421 942 313 l 942 972 m 474 1046 l 604 1046 l 457 1274 l 304 1206 l 474 1046 z "},"ı":{"ha":397,"x_min":115,"x_max":283,"o":"m 283 0 l 283 733 l 115 733 l 115 0 l 283 0 z "},"ˆ":{"ha":694,"x_min":108,"x_max":586,"o":"m 346 919 l 453 826 l 586 826 l 425 1029 l 269 1029 l 108 826 l 239 826 l 346 919 z "},"˜":{"ha":694,"x_min":85,"x_max":610,"o":"m 610 999 l 517 1028 q 486 975 501 992 q 440 958 471 958 q 399 967 421 958 q 351 985 376 975 q 297 1005 325 996 q 240 1014 269 1014 q 142 969 176 1014 q 85 840 108 925 l 178 813 q 208 865 193 849 q 254 882 224 882 q 295 873 272 882 q 344 853 318 864 q 397 835 369 843 q 454 826 425 826 q 552 871 518 826 q 610 999 586 915 z "},"¯":{"ha":694,"x_min":110,"x_max":585,"o":"m 585 833 l 585 957 l 110 957 l 110 833 l 585 833 z "},"˘":{"ha":694,"x_min":110,"x_max":585,"o":"m 585 1029 l 469 1029 q 428 965 457 989 q 347 942 400 942 q 266 965 294 942 q 225 1029 238 989 l 110 1029 q 182 877 117 931 q 347 824 247 824 q 513 877 447 824 q 585 1029 578 931 z "},"˙":{"ha":694,"x_min":260,"x_max":435,"o":"m 435 826 l 435 992 l 260 992 l 260 826 l 435 826 z "},"˚":{"ha":694,"x_min":189,"x_max":506,"o":"m 506 976 q 492 1035 506 1007 q 458 1083 479 1063 q 407 1117 436 1104 q 347 1129 378 1129 q 287 1117 315 1129 q 237 1083 258 1104 q 202 1035 215 1063 q 189 976 189 1007 q 202 917 189 944 q 237 868 215 889 q 287 835 258 847 q 347 824 315 824 q 407 835 378 824 q 458 868 436 847 q 492 917 479 889 q 506 976 506 944 m 433 976 q 408 915 433 940 q 347 890 383 890 q 286 915 311 890 q 261 976 261 940 q 286 1038 261 1013 q 347 1063 311 1063 q 408 1038 383 1063 q 433 976 433 1013 z "},"¸":{"ha":694,"x_min":182,"x_max":433,"o":"m 307 14 l 182 -168 l 329 -229 l 433 14 l 307 14 z "},"˝":{"ha":694,"x_min":78,"x_max":625,"o":"m 456 826 l 625 986 l 478 1054 l 331 826 l 456 826 m 203 826 l 369 986 l 222 1054 l 78 826 l 203 826 z "},"˛":{"ha":694,"x_min":244,"x_max":508,"o":"m 385 14 l 265 14 q 251 -30 257 -6 q 244 -78 244 -54 q 312 -196 244 -156 q 508 -228 379 -236 l 508 -150 q 407 -120 438 -146 q 376 -47 376 -94 q 385 14 376 -18 z "},"ˇ":{"ha":694,"x_min":108,"x_max":586,"o":"m 349 938 l 242 1029 l 108 1029 l 269 826 l 425 826 l 586 1029 l 456 1029 l 349 938 z "},"ł":{"ha":481,"x_min":51,"x_max":429,"o":"m 324 461 l 429 493 l 429 653 l 324 621 l 324 1014 l 157 1014 l 157 572 l 51 540 l 51 381 l 157 413 l 157 0 l 324 0 l 324 461 z "},"Š":{"ha":889,"x_min":60,"x_max":813,"o":"m 269 718 q 311 801 269 767 q 428 835 353 835 q 560 809 494 835 q 692 735 625 783 l 783 864 q 623 955 708 924 q 431 986 538 986 q 297 966 358 986 q 192 908 236 946 q 124 819 149 871 q 99 703 99 767 q 120 588 99 635 q 183 507 142 540 q 284 451 224 474 q 422 411 344 429 q 533 379 490 394 q 599 347 575 364 q 633 308 624 329 q 642 261 642 288 q 595 171 642 204 q 469 138 549 138 q 306 170 378 138 q 163 264 233 203 l 60 142 q 250 24 147 63 q 465 -14 353 -14 q 606 6 542 -14 q 715 63 669 25 q 787 154 761 100 q 813 278 813 208 q 792 384 813 339 q 733 463 772 429 q 635 521 694 497 q 500 564 576 544 q 385 596 431 581 q 315 629 340 611 q 279 668 289 647 q 269 718 269 689 m 446 1164 l 339 1256 l 206 1256 l 367 1053 l 522 1053 l 683 1256 l 553 1256 l 446 1164 z "},"š":{"ha":694,"x_min":46,"x_max":629,"o":"m 629 217 l 629 219 q 608 304 629 269 q 555 363 588 339 q 482 404 522 388 q 401 433 442 421 q 340 453 369 443 q 287 476 310 464 q 250 502 264 488 q 236 536 236 517 l 236 539 q 263 592 236 571 q 339 613 290 613 q 439 594 385 613 q 546 543 493 575 l 613 663 q 483 724 554 701 q 343 746 413 746 q 241 731 289 746 q 158 686 193 715 q 102 615 122 657 q 82 522 82 574 l 82 519 q 103 431 82 467 q 156 372 124 396 q 230 332 189 347 q 311 304 271 317 q 373 285 343 294 q 426 265 403 276 q 462 238 449 253 q 475 201 475 222 l 475 199 q 445 141 475 163 q 361 119 415 119 q 242 142 304 119 q 121 210 181 165 l 46 96 q 197 14 115 42 q 357 -14 278 -14 q 464 1 414 -14 q 551 44 514 15 q 608 115 588 72 q 629 217 629 158 m 354 938 l 247 1029 l 114 1029 l 275 826 l 431 826 l 592 1029 l 461 1029 l 354 938 z "},"Ý":{"ha":994,"x_min":25,"x_max":969,"o":"m 583 388 l 969 972 l 774 972 l 499 542 l 226 972 l 25 972 l 411 383 l 411 0 l 583 0 l 583 388 m 563 1046 l 732 1206 l 579 1274 l 432 1046 l 563 1046 z "},"ý":{"ha":828,"x_min":36,"x_max":789,"o":"m 789 733 l 614 733 l 424 189 l 215 733 l 36 733 l 342 0 q 297 -67 321 -49 q 238 -85 274 -85 q 187 -77 211 -85 q 139 -57 163 -69 l 82 -182 q 162 -215 121 -203 q 256 -226 203 -226 q 335 -215 300 -226 q 399 -180 369 -204 q 451 -117 428 -156 q 497 -21 475 -78 l 789 733 m 469 825 l 639 985 l 486 1053 l 339 825 l 469 825 z "},"Þ":{"ha":935,"x_min":125,"x_max":878,"o":"m 878 494 q 852 628 878 568 q 778 731 826 689 q 662 797 731 774 q 508 819 593 819 l 296 819 l 296 972 l 125 972 l 125 0 l 296 0 l 296 161 l 489 161 q 640 182 569 161 q 764 244 711 203 q 847 349 817 286 q 878 494 878 411 m 704 490 q 648 363 704 411 q 494 314 592 314 l 296 314 l 296 665 l 494 665 q 647 622 590 665 q 704 490 704 578 z "},"þ":{"ha":931,"x_min":106,"x_max":864,"o":"m 864 367 q 835 529 864 458 q 758 649 806 600 q 649 724 710 699 q 522 749 588 749 q 374 709 433 749 q 274 611 314 669 l 274 1014 l 106 1014 l 106 -222 l 274 -222 l 274 114 q 372 24 313 63 q 522 -15 432 -15 q 649 10 588 -15 q 759 84 711 35 q 835 204 807 133 q 864 367 864 275 m 693 367 q 676 269 693 313 q 631 194 660 225 q 565 147 603 164 q 483 131 526 131 q 401 147 440 131 q 333 195 363 164 q 287 269 304 226 q 269 367 269 313 q 287 464 269 421 q 333 538 304 507 q 401 586 363 569 q 483 603 440 603 q 565 586 526 603 q 631 539 603 569 q 676 465 660 508 q 693 367 693 421 z "},"Ž":{"ha":975,"x_min":90,"x_max":886,"o":"m 664 821 l 90 126 l 90 0 l 886 0 l 886 151 l 313 151 l 886 846 l 886 972 l 108 972 l 108 821 l 664 821 m 494 1164 l 388 1256 l 254 1256 l 415 1053 l 571 1053 l 732 1256 l 601 1256 l 494 1164 z "},"ž":{"ha":778,"x_min":72,"x_max":710,"o":"m 496 596 l 72 115 l 72 0 l 710 0 l 710 138 l 286 138 l 710 618 l 710 733 l 88 733 l 88 596 l 496 596 m 401 938 l 294 1029 l 161 1029 l 322 826 l 478 826 l 639 1029 l 508 1029 l 401 938 z "},"Ł":{"ha":901,"x_min":63,"x_max":849,"o":"m 849 0 l 849 156 l 336 156 l 336 438 l 617 522 l 617 681 l 336 597 l 336 972 l 167 972 l 167 546 l 63 514 l 63 356 l 167 386 l 167 0 l 849 0 z "},"Ω":{"ha":1044,"x_min":50,"x_max":1026,"o":"m 831 728 l 831 768 q 928 879 831 879 q 978 874 956 879 q 1026 861 1001 869 l 1026 1003 q 966 1017 999 1011 q 889 1022 933 1022 q 723 963 781 1022 q 665 782 665 904 l 665 729 l 572 729 l 572 589 l 665 589 l 665 0 l 833 0 l 833 589 l 1025 589 l 1025 728 l 831 728 m 308 728 l 308 768 q 406 879 308 879 q 456 874 433 879 q 504 861 479 869 l 504 1003 q 444 1017 476 1011 q 368 1022 413 1022 q 201 963 260 1022 q 143 782 143 904 l 143 729 l 50 729 l 50 589 l 143 589 l 143 0 l 311 0 l 311 589 l 503 589 l 503 728 l 308 728 z "},"∕":{"ha":638,"x_min":-97,"x_max":704,"o":"m 551 1053 l -97 -136 l 56 -136 l 704 1053 l 551 1053 z "},"Ð":{"ha":1128,"x_min":63,"x_max":1046,"o":"m 167 413 l 167 0 l 529 0 q 738 38 643 0 q 902 140 833 75 q 1008 295 971 206 q 1046 488 1046 385 q 1008 679 1046 590 q 902 833 971 768 q 738 935 833 899 q 529 972 643 972 l 167 972 l 167 565 l 63 565 l 63 413 l 167 413 m 336 565 l 336 817 l 529 817 q 668 792 606 817 q 774 722 731 767 q 842 617 818 678 q 867 485 867 557 q 842 352 867 413 q 774 248 818 292 q 668 180 731 204 q 529 156 606 156 l 336 156 l 336 413 l 581 413 l 581 565 l 336 565 z "},"ð":{"ha":892,"x_min":65,"x_max":824,"o":"m 435 817 l 581 618 q 492 660 536 646 q 388 675 447 675 q 260 651 319 675 q 158 584 201 628 q 90 480 115 540 q 65 346 65 419 q 93 205 65 271 q 171 90 121 139 q 290 12 221 40 q 439 -17 358 -17 q 601 14 529 -17 q 722 96 672 44 q 797 215 771 147 q 824 358 824 283 q 816 447 824 406 q 793 530 808 489 q 755 612 778 571 q 701 697 732 653 l 578 876 l 719 938 l 654 1025 l 517 965 l 483 1014 l 290 1014 l 371 904 l 203 831 l 269 743 l 435 817 m 658 342 q 643 258 658 297 q 600 190 628 219 q 533 144 572 161 q 446 126 494 126 q 359 144 399 126 q 291 191 319 161 q 247 260 263 221 q 231 342 231 299 q 245 424 231 386 q 288 491 260 463 q 353 535 315 519 q 440 551 392 551 q 529 535 489 551 q 598 490 569 518 q 642 424 626 463 q 658 342 658 385 z "}}}
